<?xml version="1.0"?>
<svg xmlns="http://www.w3.org/2000/svg" xmlns:xlink="http://www.w3.org/1999/xlink" xmlns:svgjs="http://svgjs.com/svgjs" version="1.1" width="512" height="512" x="0" y="0" viewBox="0 0 512 512" style="enable-background:new 0 0 512 512" xml:space="preserve" class=""><g><g xmlns="http://www.w3.org/2000/svg"><path d="m463.803 375c0-2.842-.146-5.654-.41-8.423l34.805-20.098-45-77.959-35.098 20.289c-4.57-3.149-9.346-5.918-14.297-8.291v-40.518h-90v40.518c-4.951 2.373-9.727 5.142-14.297 8.291l-35.098-20.288-45 77.959 34.805 20.098c-.264 2.769-.41 5.581-.41 8.423s.146 5.654.41 8.423l-34.805 20.098 45 77.959 35.098-20.288c4.57 3.149 9.346 5.918 14.297 8.291v42.516h90v-42.518c4.951-2.373 9.727-5.142 14.297-8.291l35.098 20.288 45-77.959-34.805-20.098c.263-2.768.41-5.58.41-8.422zm-105 45c-24.814 0-45-20.186-45-45s20.186-45 45-45 45 20.186 45 45-20.186 45-45 45z" fill="#662ec9" data-original="#475e8c" style="" class=""/><path d="m463.803 375c0-2.842-.146-5.654-.41-8.423l34.805-20.098-45-77.959-35.098 20.289c-4.57-3.149-9.346-5.918-14.297-8.291v-40.518h-45v90c24.814 0 45 20.186 45 45s-20.186 45-45 45v92h45v-42.518c4.951-2.373 9.727-5.142 14.297-8.291l35.098 20.288 45-77.959-34.805-20.098c.263-2.768.41-5.58.41-8.422z" fill="#481ea5" data-original="#38478c" style="" class=""/><g><path d="m163.803 270h-90v-70.503c-36.299-17.271-60-54.009-60-94.497 0-57.891 47.109-105 105-105s105 47.109 105 105c0 40.488-23.701 77.227-60 94.497z" fill="#ffdd33" data-original="#ffdd33" style="" class=""/></g><path d="m163.803 270v-70.503c36.299-17.271 60-54.009 60-94.497 0-57.891-47.109-105-105-105v270z" fill="#ffbb33" data-original="#ffbb33" style=""/><g id="Implement_1_"><g><path d="m393.197 139.395-19.395 19.395v-23.79c0-24.814-20.186-45-45-45h-45v30h45c8.262 0 15 6.724 15 15v23.789l-19.395-19.395-21.211 21.211 55.605 55.605 55.605-55.605z" fill="#8452e9" data-original="#aa80ff" style="" class=""/><path d="m133.803 375v-23.789l19.395 19.395 21.211-21.211-55.605-55.605-55.605 55.605 21.211 21.211 19.395-19.395v23.789c0 24.814 20.186 45 45 45h45v-30h-45c-8.264 0-15.002-6.724-15.002-15z" fill="#8e27e3" data-original="#dd99ff" style="" class=""/></g><g><path d="m118.803 156.211-40.606-40.606 21.211-21.21 19.395 19.394 19.394-19.394 21.211 21.21z" fill="#ffbb33" data-original="#ffbb33" style=""/></g></g><path d="m159.408 115.605-21.211-21.21-19.394 19.394v42.422z" fill="#ff9f19" data-original="#ff9f19" style="" class=""/></g></g></svg>
