<?xml version="1.0"?>
<svg xmlns="http://www.w3.org/2000/svg" xmlns:xlink="http://www.w3.org/1999/xlink" xmlns:svgjs="http://svgjs.com/svgjs" version="1.1" width="512" height="512" x="0" y="0" viewBox="0 0 64 64" style="enable-background:new 0 0 512 512" xml:space="preserve" class=""><g><g xmlns="http://www.w3.org/2000/svg" id="Flat"><g id="Color_copy" data-name="Color copy"><path d="m11 7h42v54h-42z" fill="#e9f1f2" data-original="#e9f1f2" style=""/><path d="m53 32.76v9.97l-5.49 7.28-6.01 2.99 1.21-6.6z" fill="#d0d8da" data-original="#d0d8da" style="" class=""/><path d="m24 11v13a22 22 0 0 0 22 22h7v15h-42v-54h27v4z" fill="#d0d8da" data-original="#d0d8da" style="" class=""/><path d="m15 7h34v50h-34z" fill="#ade8f4" data-original="#ade8f4" style=""/><path d="m24 11v13a22 22 0 0 0 22 22h3v11h-34v-50h26v2a2 2 0 0 1 -2 2z" fill="#48cae4" data-original="#48cae4" style="" class=""/><path d="m49 38.06v9.97l-1.49 1.98-6.01 2.99 1.21-6.6z" fill="#48cae4" data-original="#48cae4" style="" class=""/><path d="m36 4a1 1 0 0 0 -1-1h-6a1 1 0 0 0 -1 1 1 1 0 0 1 -1 1h-3a1 1 0 0 0 -1 1v3a1 1 0 0 0 1 1h16a1 1 0 0 0 1-1v-3a1 1 0 0 0 -1-1h-3a1 1 0 0 1 -1-1z" fill="#e9f1f2" data-original="#e9f1f2" style=""/><path d="m41 8v1a1 1 0 0 1 -1 1h-16a1 1 0 0 1 -1-1v-3a1 1 0 0 1 1-1h1a3.009 3.009 0 0 0 3 3z" fill="#d0d8da" data-original="#d0d8da" style="" class=""/><path d="m21.16 24a8.17 8.17 0 0 0 -.08-1.11l2.24-1.29-3-5.2-2.24 1.3a7.814 7.814 0 0 0 -1.92-1.11v-2.59h-6v2.59a7.814 7.814 0 0 0 -1.92 1.11l-2.24-1.3-3 5.2 2.25 1.29a6.89 6.89 0 0 0 0 2.22l-2.25 1.29 3 5.2 2.24-1.3a7.814 7.814 0 0 0 1.92 1.11v2.59h6v-2.59a7.814 7.814 0 0 0 1.92-1.11l2.24 1.3 3-5.2-2.24-1.29a8.17 8.17 0 0 0 .08-1.11zm-8 3a3 3 0 1 1 3-3 3 3 0 0 1 -3 3z" fill="#8148ff" data-original="#fffa48" style="" class=""/><path d="m23.17 26.31a12.8 12.8 0 0 1 -4.17.69 12.931 12.931 0 0 1 -4-.63 3.03 3.03 0 0 1 -1.84.63 3 3 0 0 1 -3-3 2.183 2.183 0 0 1 .04-.44 12.863 12.863 0 0 1 -3.95-7.02l-.25-.14-3 5.2 2.25 1.29a6.89 6.89 0 0 0 0 2.22l-2.25 1.29 3 5.2 2.24-1.3a7.814 7.814 0 0 0 1.92 1.11v2.59h6v-2.59a7.814 7.814 0 0 0 1.92-1.11l2.24 1.3 3-5.2z" fill="#5f36b9" data-original="#fcea42" style="" class=""/><path d="m13 18a6 6 0 1 0 6 6 6 6 0 0 0 -6-6zm.16 9a3 3 0 1 1 3-3 3 3 0 0 1 -3 3z" fill="#5f36b9" data-original="#fcea42" style="" class=""/><path d="m15 26.37a3.03 3.03 0 0 1 -1.84.63 3 3 0 0 1 -3-3 2.183 2.183 0 0 1 .04-.44 12.336 12.336 0 0 1 -2.27-2.76 5.91 5.91 0 0 0 -.93 3.2 6 6 0 0 0 11.21 2.97 12.66 12.66 0 0 1 -3.21-.6z" fill="#7c42fc" data-original="#fdc741" style="" class=""/><path d="m42 25h-6v-3a1 1 0 0 0 -2 0v3h-6a1 1 0 0 0 -1 1v4a1 1 0 0 0 2 0v-3h12v3a1 1 0 0 0 2 0v-4a1 1 0 0 0 -1-1z" fill="#5f36b9" data-original="#fcea42" style="" class=""/><path d="m42 35a1 1 0 0 0 -1 1v3h-19a1 1 0 0 0 -1 1v4a1 1 0 0 0 2 0v-3h8v3a1 1 0 0 0 2 0v-3h9a1 1 0 0 0 1-1v-4a1 1 0 0 0 -1-1z" fill="#5f36b9" data-original="#fcea42" style="" class=""/><path d="m33 41.75v2.25a1 1 0 0 1 -2 0v-3h-8v3a1 1 0 0 1 -2 0v-4a1 1 0 0 1 1-1h7.9a22.5 22.5 0 0 0 3.1 2.75z" fill="#7c42fc" data-original="#fdc741" style="" class=""/><path d="m28 16h14v6h-14z" fill="#ff7373" transform="matrix(-1 0 0 -1 70 38)" data-original="#ff7373" style="" class=""/><path d="m39 30h6v6h-6z" fill="#ff7373" transform="matrix(-1 0 0 -1 84 66)" data-original="#ff7373" style="" class=""/><path d="m29 44h6v4h-6z" fill="#ef5350" transform="matrix(-1 0 0 -1 64 92)" data-original="#ef5350" style="" class=""/><path d="m19 44h6v4h-6z" fill="#ef5350" transform="matrix(-1 0 0 -1 44 92)" data-original="#ef5350" style="" class=""/><path d="m25 30h6v6h-6z" fill="#ff7373" transform="matrix(-1 0 0 -1 56 66)" data-original="#ff7373" style="" class=""/><path d="m31 34v2h-6v-6h2v1a3 3 0 0 0 3 3z" fill="#ef5350" data-original="#ef5350" style="" class=""/><path d="m27.56 36h-2.56v-5.42a21.718 21.718 0 0 0 2.56 5.42z" fill="#e53935" data-original="#e53935" style="" class=""/><path d="m42 20v2h-14v-6h2v1a3 3 0 0 0 3 3z" fill="#ef5350" data-original="#ef5350" style="" class=""/><path d="m45 34v2h-6v-6h2v1a3 3 0 0 0 3 3z" fill="#ef5350" data-original="#ef5350" style="" class=""/><path d="m25 46v2h-6v-4h2a2.006 2.006 0 0 0 2 2z" fill="#e53935" data-original="#e53935" style="" class=""/><path d="m35 46v2h-6v-4h2a2.006 2.006 0 0 0 2 2z" fill="#e53935" data-original="#e53935" style="" class=""/><path d="m47.499 25.412h6v24h-6z" fill="#5f36b9" transform="matrix(.866 .5 -.5 .866 25.471 -20.237)" data-original="#fcea42" style="" class=""/><g fill="#fdc741"><path d="m47.098 49.304-5.197-3-.402 6.696z" fill="#7c42fc" data-original="#fdc741" style="" class=""/><path d="m59.5 21.823a3 3 0 0 0 -4.1 1.1l-1.5 2.6 5.2 3 1.5-2.6a3 3 0 0 0 -1.1-4.1z" fill="#7c42fc" data-original="#fdc741" style="" class=""/><path d="m59.1 28.52-12 20.78-3.23-1.87q.33-.315.66-.66a28.585 28.585 0 0 0 3.92-5.28l8.28-14.34z" fill="#7c42fc" data-original="#fdc741" style="" class=""/></g><path d="m47.1 49.3-5.6 3.7.22-3.64a22.985 22.985 0 0 0 2.15-1.93z" fill="#4d26a3" data-original="#efad1b" style="" class=""/><path d="m60.6 25.92-1.5 2.6-2.37-1.37 1.87-3.23a2.964 2.964 0 0 0 .26-2.37 2.729 2.729 0 0 1 .64.27 3.007 3.007 0 0 1 1.1 4.1z" fill="#4d26a3" data-original="#efad1b" style="" class=""/></g></g></g></svg>
