<?xml version="1.0"?>
<svg xmlns="http://www.w3.org/2000/svg" xmlns:xlink="http://www.w3.org/1999/xlink" xmlns:svgjs="http://svgjs.com/svgjs" version="1.1" width="512" height="512" x="0" y="0" viewBox="0 0 512 512" style="enable-background:new 0 0 512 512" xml:space="preserve" class=""><g><g xmlns="http://www.w3.org/2000/svg"><path d="m403.587 504.66c-10.442 2.798-21.175-3.399-23.972-13.84l-51.426-191.923c-2.798-10.442 3.399-21.175 13.841-23.972 10.442-2.798 21.175 3.399 23.972 13.841l51.425 191.923c2.798 10.441-3.399 21.173-13.84 23.971z" fill="#838383" data-original="#838383" style=""/><path d="m108.413 504.66c10.442 2.798 21.175-3.399 23.972-13.84l51.425-191.923c2.798-10.442-3.399-21.175-13.84-23.972-10.442-2.798-21.175 3.399-23.972 13.841l-51.425 191.922c-2.798 10.442 3.399 21.174 13.84 23.972z" fill="#838383" data-original="#838383" style=""/><path d="m366.002 288.766c-2.798-10.442-13.531-16.639-23.972-13.841-10.442 2.798-16.638 13.531-13.84 23.972l34.721 129.58h40.528z" fill="#5a5a5a" data-original="#5a5a5a" style=""/><path d="m169.971 274.925c-10.442-2.798-21.175 3.398-23.973 13.841l-37.436 139.712h40.528l34.721-129.58c2.798-10.442-3.398-21.175-13.84-23.973z" fill="#5a5a5a" data-original="#5a5a5a" style=""/><g><path d="m256 441.907c-4.267 0-7.726-3.459-7.726-7.726v-87.544c0-4.267 3.459-7.726 7.726-7.726s7.726 3.459 7.726 7.726v87.544c0 4.267-3.459 7.726-7.726 7.726z" fill="#0067c5" data-original="#0067c5" style="" class=""/></g><circle cx="256" cy="455.046" fill="#0067c5" r="20.865" data-original="#0067c5" style="" class=""/><path d="m472.338 387.595h-432.676c-7.965 0-14.423-6.457-14.423-14.423v-337.608h461.521v337.608c.001 7.965-6.457 14.423-14.422 14.423z" fill="#d3e1f5" data-original="#d3e1f5" style="" class=""/><circle cx="147.016" cy="172.383" fill="#8661ee" r="78.242" data-original="#ee6161" style="" class=""/><path d="m147.016 94.141v78.242h78.242c0-43.212-35.03-78.242-78.242-78.242z" fill="#7531d8" data-original="#d83131" style="" class=""/><g><path d="m443.227 130.2h-181.656c-4.267 0-7.726-3.459-7.726-7.726s3.459-7.726 7.726-7.726h181.655c4.267 0 7.726 3.459 7.726 7.726.001 4.266-3.458 7.726-7.725 7.726z" fill="#528fd8" data-original="#528fd8" style=""/></g><g><path d="m443.227 165.242h-181.656c-4.267 0-7.726-3.459-7.726-7.726s3.459-7.726 7.726-7.726h181.655c4.267 0 7.726 3.459 7.726 7.726s-3.458 7.726-7.725 7.726z" fill="#528fd8" data-original="#528fd8" style=""/></g><g><path d="m352.399 200.284h-90.827c-4.267 0-7.726-3.459-7.726-7.726s3.459-7.726 7.726-7.726h90.827c4.267 0 7.726 3.459 7.726 7.726s-3.459 7.726-7.726 7.726z" fill="#528fd8" data-original="#528fd8" style=""/></g><path d="m296.911 355.669h-17.513c-4.552 0-8.241-3.69-8.241-8.241v-100.957c0-4.552 3.69-8.241 8.241-8.241h17.513c4.552 0 8.241 3.69 8.241 8.241v100.956c.001 4.552-3.689 8.242-8.241 8.242z" fill="#7531d8" data-original="#d83131" style="" class=""/><path d="m361.156 355.669h-17.513c-4.552 0-8.241-3.69-8.241-8.241v-82.791c0-4.552 3.69-8.241 8.241-8.241h17.513c4.552 0 8.241 3.69 8.241 8.241v82.791c0 4.551-3.69 8.241-8.241 8.241z" fill="#8f44e9" data-original="#e94444" style="" class=""/><path d="m425.4 355.669h-17.513c-4.552 0-8.241-3.69-8.241-8.241v-51.019c0-4.552 3.69-8.241 8.241-8.241h17.513c4.552 0 8.241 3.69 8.241 8.241v51.019c0 4.551-3.689 8.241-8.241 8.241z" fill="#8661ee" data-original="#ee6161" style="" class=""/><g><path d="m237.843 310.838h-169.07c-4.267 0-7.726-3.459-7.726-7.726s3.459-7.726 7.726-7.726h169.07c4.267 0 7.726 3.459 7.726 7.726s-3.459 7.726-7.726 7.726z" fill="#528fd8" data-original="#528fd8" style=""/></g><g><path d="m153.308 345.88h-84.535c-4.267 0-7.726-3.459-7.726-7.726s3.459-7.726 7.726-7.726h84.535c4.267 0 7.726 3.459 7.726 7.726.001 4.267-3.459 7.726-7.726 7.726z" fill="#528fd8" data-original="#528fd8" style=""/></g><path d="m451.718 35.564v337.608c0 7.965-6.457 14.423-14.423 14.423h35.042c7.965 0 14.423-6.457 14.423-14.423v-337.608z" fill="#c0d6f2" data-original="#c0d6f2" style="" class=""/><path d="m503.759 64.461h-495.518c-4.551 0-8.241-3.69-8.241-8.241v-41.31c0-4.552 3.69-8.241 8.241-8.241h495.517c4.552 0 8.241 3.69 8.241 8.241v41.31c.001 4.551-3.689 8.241-8.24 8.241z" fill="#0067c5" data-original="#0067c5" style="" class=""/><path d="m503.759 6.668h-35.042c4.552 0 8.241 3.69 8.241 8.241v41.31c0 4.552-3.69 8.241-8.241 8.241h35.042c4.552 0 8.241-3.69 8.241-8.241v-41.31c0-4.551-3.69-8.241-8.241-8.241z" fill="#0055a3" data-original="#0055a3" style="" class=""/></g></g></svg>
