<svg height="480pt" viewBox="0 0 480 480" width="480pt" xmlns="http://www.w3.org/2000/svg"><path d="m432 240c0 106.039062-85.960938 192-192 192s-192-85.960938-192-192 85.960938-192 192-192 192 85.960938 192 192zm0 0" fill="#cfd2fc"/><path d="m240 480c-132.546875 0-240-107.453125-240-240s107.453125-240 240-240 240 107.453125 240 240c-.148438 132.484375-107.515625 239.851562-240 240zm0-464c-123.710938 0-224 100.289062-224 224s100.289062 224 224 224 224-100.289062 224-224c-.140625-123.652344-100.347656-223.859375-224-224zm0 0" fill="#8690fa"/><g fill="#5153ff"><path d="m192 360c-2.675781.003906-5.179688-1.332031-6.664062-3.558594l-32-48c-1.792969-2.691406-1.792969-6.191406 0-8.882812l32-48c2.453124-3.675782 7.421874-4.667969 11.097656-2.214844 3.675781 2.453125 4.667968 7.421875 2.214844 11.097656l-29.046876 43.558594 29.039063 43.558594c1.636719 2.453125 1.789063 5.609375.402344 8.207031-1.386719 2.601563-4.09375 4.230469-7.042969 4.234375zm0 0"/><path d="m288 312h-128c-4.417969 0-8-3.582031-8-8s3.582031-8 8-8h128c30.914062-.035156 55.964844-25.085938 56-56 0-4.417969 3.582031-8 8-8s8 3.582031 8 8c-.042969 39.746094-32.253906 71.957031-72 72zm0 0"/><path d="m288 232c-2.949219-.003906-5.660156-1.628906-7.050781-4.230469-1.386719-2.601562-1.234375-5.753906.402343-8.210937l29.046876-43.558594-29.039063-43.558594c-2.453125-3.675781-1.460937-8.644531 2.214844-11.097656 3.679687-2.453125 8.644531-1.460938 11.097656 2.214844l32 48c1.792969 2.691406 1.792969 6.191406 0 8.882812l-32 48c-1.488281 2.226563-3.992187 3.5625-6.671875 3.558594zm0 0"/><path d="m128 248c-4.417969 0-8-3.582031-8-8 .042969-39.746094 32.253906-71.957031 72-72h128c4.417969 0 8 3.582031 8 8s-3.582031 8-8 8h-128c-30.914062.035156-55.964844 25.085938-56 56 0 4.417969-3.582031 8-8 8zm0 0"/></g></svg>