<svg id="Layer_1" enable-background="new 0 0 256 256" height="512" viewBox="0 0 256 256" width="512" xmlns="http://www.w3.org/2000/svg"><path d="m190 248h-162c-5.523 0-10-4.477-10-10v-220c0-5.523 4.477-10 10-10h162c5.523 0 10 4.477 10 10v220c0 5.523-4.477 10-10 10z" fill="#e0ebfc"/><path d="m190 250h-162c-6.617 0-12-5.383-12-12v-220c0-6.617 5.383-12 12-12h162c6.617 0 12 5.383 12 12v220c0 6.617-5.383 12-12 12zm-162-240c-4.411 0-8 3.589-8 8v220c0 4.411 3.589 8 8 8h162c4.411 0 8-3.589 8-8v-220c0-4.411-3.589-8-8-8z" fill="#3762cc"/><path d="m175.717 211.905h-102c-2.209 0-4-1.791-4-4s1.791-4 4-4h102c2.209 0 4 1.791 4 4s-1.791 4-4 4z" fill="#a4c9ff"/><path d="m175.717 99.165h-140c-2.209 0-4-1.791-4-4s1.791-4 4-4h140c2.209 0 4 1.791 4 4s-1.791 4-4 4z" fill="#a4c9ff"/><path d="m175.717 123.165h-140c-2.209 0-4-1.791-4-4s1.791-4 4-4h140c2.209 0 4 1.791 4 4s-1.791 4-4 4z" fill="#a4c9ff"/><path d="m175.717 147.165h-140c-2.209 0-4-1.791-4-4s1.791-4 4-4h140c2.209 0 4 1.791 4 4s-1.791 4-4 4z" fill="#a4c9ff"/><path d="m175.717 171.165h-140c-2.209 0-4-1.791-4-4s1.791-4 4-4h140c2.209 0 4 1.791 4 4s-1.791 4-4 4z" fill="#a4c9ff"/><circle cx="189" cy="198.854" fill="#6bdddd" r="49"/><circle cx="189" cy="198.854" fill="#ffea92" r="35.875"/><path d="m189 249.854c-28.122 0-51-22.878-51-51s22.878-51 51-51 51 22.878 51 51-22.878 51-51 51zm0-98c-25.916 0-47 21.084-47 47s21.084 47 47 47 47-21.084 47-47-21.084-47-47-47z" fill="#3762cc"/><path d="m189 236.729c-20.884 0-37.875-16.991-37.875-37.875s16.991-37.875 37.875-37.875 37.875 16.991 37.875 37.875-16.991 37.875-37.875 37.875zm0-71.75c-18.679 0-33.875 15.196-33.875 33.875s15.196 33.875 33.875 33.875 33.875-15.196 33.875-33.875-15.196-33.875-33.875-33.875z" fill="#3762cc"/><path d="m58.967 221.322h-19.25c-2.209 0-4-1.791-4-4v-19.25c0-2.209 1.791-4 4-4h19.25c2.209 0 4 1.791 4 4v19.25c0 2.209-1.791 4-4 4z" fill="#a4c9ff"/><path d="m65.728 51.938h-3.048v13.807c0 1.818-.401 3.156-1.202 4.016s-1.847 1.29-3.137 1.29c-1.388 0-2.462-.45-3.224-1.348-.762-.899-1.144-2.218-1.144-3.958v-33.067c0-1.876.42-3.234 1.261-4.074.84-.84 2.198-1.26 4.075-1.26h14.158c1.954 0 3.625.083 5.013.249 1.387.166 2.638.503 3.752 1.011 1.349.567 2.541 1.378 3.576 2.433 1.036 1.055 1.822 2.282 2.36 3.679.537 1.397.806 2.878.806 4.441 0 3.205-.904 5.765-2.711 7.68-1.808 1.916-4.549 3.274-8.223 4.075 1.544.821 3.02 2.033 4.427 3.635 1.407 1.603 2.662 3.308 3.767 5.115 1.104 1.808 1.964 3.44 2.58 4.896s.923 2.458.923 3.005c0 .567-.181 1.128-.542 1.686-.362.557-.855.997-1.48 1.319-.626.322-1.349.484-2.169.484-.978 0-1.798-.23-2.462-.689-.665-.459-1.236-1.041-1.715-1.744-.479-.704-1.128-1.739-1.949-3.107l-3.488-5.804c-1.251-2.13-2.37-3.752-3.356-4.866s-1.989-1.876-3.004-2.286c-1.02-.413-2.3-.618-3.844-.618zm4.984-18.058h-8.032v11.813h7.797c2.091 0 3.85-.18 5.276-.542 1.426-.361 2.516-.977 3.269-1.847.752-.869 1.128-2.067 1.128-3.591 0-1.192-.303-2.242-.909-3.151s-1.447-1.588-2.521-2.037c-1.016-.429-3.019-.645-6.008-.645z" fill="#a4c9ff"/><path d="m122.889 34.056h-17.148v10.992h14.334c1.329 0 2.32.298 2.976.894.654.596.982 1.393.982 2.389s-.333 1.788-.997 2.374c-.665.586-1.651.879-2.96.879h-14.334v14.158c0 1.798-.406 3.132-1.216 4.001-.811.869-1.852 1.304-3.122 1.304-1.29 0-2.34-.44-3.151-1.319-.812-.879-1.217-2.208-1.217-3.987v-33.063c0-1.25.186-2.272.557-3.063s.953-1.368 1.744-1.729c.792-.361 1.803-.542 3.034-.542h20.52c1.388 0 2.418.308 3.093.923.674.616 1.011 1.422 1.011 2.418 0 1.016-.337 1.832-1.011 2.448-.676.616-1.707.923-3.095.923z" fill="#a4c9ff"/><path d="m150.151 53.579h-7.973v12.165c0 1.74-.411 3.059-1.231 3.958-.821.898-1.857 1.348-3.107 1.348-1.31 0-2.365-.445-3.166-1.334-.802-.889-1.202-2.194-1.202-3.913v-33.125c0-1.915.44-3.283 1.319-4.104s2.276-1.231 4.192-1.231h11.168c3.302 0 5.843.254 7.622.762 1.759.489 3.278 1.3 4.558 2.433 1.28 1.134 2.252 2.521 2.917 4.163s.997 3.488.997 5.54c0 4.378-1.349 7.695-4.045 9.952s-6.714 3.386-12.049 3.386zm-2.111-19.699h-5.862v13.133h5.862c2.052 0 3.767-.215 5.145-.645 1.378-.429 2.428-1.133 3.151-2.111.723-.977 1.084-2.257 1.084-3.84 0-1.895-.557-3.439-1.671-4.631-1.25-1.27-3.82-1.906-7.709-1.906z" fill="#a4c9ff"/><path d="m49.463 217.496c-1.85 0-3.616-.864-4.75-2.333l-7.075-9.159c-1.351-1.748-1.028-4.26.72-5.611 1.75-1.351 4.261-1.028 5.611.72l5.4 6.991 14.964-21.734c1.252-1.82 3.745-2.279 5.563-1.026 1.82 1.253 2.279 3.743 1.026 5.563l-16.518 23.992c-1.083 1.573-2.869 2.543-4.778 2.595-.056.001-.109.002-.163.002z" fill="#4671c6"/><path d="m137.538 163.77-21.213-21.213 92.631-92.631c1.562-1.562 4.095-1.562 5.657 0l15.556 15.556c1.562 1.562 1.562 4.095 0 5.657z" fill="#b9befc"/><path d="m235.95 48.388-4.243-4.243c-2.734-2.734-7.166-2.734-9.899 0l-6.488 6.488 14.142 14.142 6.488-6.488c2.733-2.733 2.733-7.165 0-9.899z" fill="#6bdddd"/><path d="m116.325 142.557-4.39 22.789c-.301 1.562 1.253 3.116 2.815 2.815l22.789-4.39z" fill="#e0ebfc"/><path d="m114.017 154.537-2.082 10.809c-.301 1.562 1.253 3.116 2.815 2.815l10.809-2.082z" fill="#4671c6"/><path d="m212.053 75.3h6.25v30.5h-6.25z" fill="#f9cfcf" transform="matrix(.707 .707 -.707 .707 127.053 -125.633)"/><path d="m171.868 144.113c1.611 1.611 4.223 1.611 5.834 0l50.47-50.47c3.222-3.222 3.222-8.445 0-11.667l-56.303 56.303c-1.612 1.611-1.612 4.223-.001 5.834z" fill="#f9cfcf"/><g fill="#3762cc"><path d="m114.356 170.198c-1.139 0-2.267-.472-3.127-1.333-1.055-1.055-1.525-2.512-1.258-3.898l4.39-22.788c.14-.727.67-1.317 1.377-1.534.708-.216 1.478-.025 2 .498l21.213 21.213c.523.523.715 1.293.498 2s-.807 1.237-1.534 1.377l-22.789 4.39c-.253.051-.512.075-.77.075zm3.22-23.562-3.677 19.088c-.01.052.034.188.159.313s.258.171.314.16l19.087-3.677z"/><path d="m229.462 66.775c-.512 0-1.024-.195-1.414-.586l-14.142-14.142c-.781-.781-.781-2.047 0-2.828l6.487-6.488c3.509-3.509 9.219-3.509 12.728 0l4.243 4.243c3.509 3.509 3.509 9.219 0 12.728l-6.487 6.487c-.391.391-.903.586-1.415.586zm-11.313-16.142 11.313 11.313 5.073-5.073c1.949-1.95 1.949-5.122 0-7.072l-4.243-4.243c-1.949-1.949-5.121-1.95-7.071 0z"/><path d="m206.605 105.542c-.512 0-1.024-.195-1.414-.586l-4.419-4.419c-.781-.781-.781-2.047 0-2.828l21.566-21.566c.78-.781 2.048-.781 2.828 0l4.419 4.419c.781.781.781 2.047 0 2.828l-21.566 21.566c-.39.391-.902.586-1.414.586zm-1.591-6.419 1.591 1.591 18.738-18.738-1.591-1.591z"/><path d="m174.785 147.318c-1.568 0-3.137-.597-4.331-1.791-2.388-2.388-2.388-6.273 0-8.662l56.303-56.303c.78-.781 2.047-.781 2.828 0 1.936 1.936 3.002 4.51 3.002 7.248s-1.066 5.312-3.002 7.248l-50.47 50.469c-1.193 1.194-2.761 1.791-4.33 1.791zm53.156-62.284-54.659 54.659c-.828.829-.828 2.177 0 3.005.83.829 2.177.828 3.005 0l50.47-50.47c1.181-1.181 1.831-2.75 1.831-4.419 0-.978-.224-1.923-.647-2.775z"/><path d="m137.538 165.771c-.53 0-1.039-.211-1.414-.586l-21.213-21.213c-.781-.781-.781-2.047 0-2.828l92.631-92.631c2.339-2.34 6.146-2.34 8.485 0l15.557 15.556c1.133 1.133 1.757 2.64 1.757 4.242 0 1.603-.624 3.109-1.757 4.243l-92.631 92.631c-.376.375-.885.586-1.415.586zm-18.384-23.214 18.384 18.385 91.217-91.217c.377-.378.585-.88.585-1.415 0-.534-.208-1.036-.585-1.414l-15.556-15.556c-.756-.755-2.073-.755-2.829 0z"/></g><path d="m185.417 219.496c-3.294 0-6.438-1.538-8.456-4.153l-12.596-16.306c-2.404-3.112-1.83-7.585 1.282-9.989 3.115-2.405 7.586-1.829 9.989 1.282l9.613 12.445 26.639-38.692c2.23-3.24 6.666-4.057 9.903-1.827 3.24 2.23 4.058 6.664 1.827 9.904l-29.406 42.712c-1.927 2.8-5.108 4.528-8.507 4.62-.096.002-.192.004-.288.004z" fill="#f9a7a7"/></svg>