<?xml version="1.0"?>
<svg xmlns="http://www.w3.org/2000/svg" xmlns:xlink="http://www.w3.org/1999/xlink" xmlns:svgjs="http://svgjs.com/svgjs" version="1.1" width="512" height="512" x="0" y="0" viewBox="0 0 512 512" style="enable-background:new 0 0 512 512" xml:space="preserve" class=""><g><g xmlns="http://www.w3.org/2000/svg"><path d="m241 151.077h30v30h-30z" fill="#ffffff" data-original="#000000" style=""/><path d="m394.187 345.407-69.401-149.479c3.988-9.154 6.214-19.246 6.214-29.851 0-24.484-11.796-46.262-30-59.959v-61.041c0-24.813-20.187-45-45-45s-45 20.187-45 45v61.041c-18.204 13.697-30 35.475-30 59.959 0 10.606 2.226 20.697 6.214 29.851l-69.401 149.479c-44.246 9.429-117.813 31.729-117.813 76.67 0 18.719 12.664 35.342 37.639 49.407l14.722-26.14c-14.002-7.885-22.361-16.583-22.361-23.267 0-9.922 19.677-27.841 71.698-41.961l-18.498 39.843c-8.234 17.659-3.978 37.988 9.117 50.985l-13.525 27.888 26.993 13.092 13.658-28.161c18.71 1.913 37.08-8.084 45.336-25.791l43.822-94.395c15.52-.991 31.421-1.499 47.399-1.499s31.88.508 47.399 1.499l43.833 94.418c8.297 17.792 26.77 27.664 45.325 25.768l13.659 28.161 26.992-13.092-13.513-27.861c12.851-12.707 17.51-32.987 9.115-50.989l-18.509-39.865c52.022 14.118 71.699 32.038 71.699 41.96 0 6.685-8.359 15.383-22.36 23.268l14.721 26.14c24.976-14.065 37.64-30.688 37.64-49.408-.001-44.978-73.686-67.266-117.814-76.67zm-153.187-300.33c0-8.271 6.729-15 15-15s15 6.729 15 15v47.509c-4.848-.988-9.864-1.509-15-1.509s-10.152.521-15 1.509zm15 76c24.813 0 45 20.187 45 45s-20.187 45-45 45-45-20.187-45-45 20.187-45 45-45zm-118.422 324.239c-3.504 7.513-12.42 10.76-19.934 7.255-7.484-3.489-10.777-12.381-7.245-19.956l97.185-209.323c7.633 6.469 16.562 11.449 26.35 14.468zm85.317-112.531 33.105-71.309 33.105 71.31c-21.91-.921-44.3-.921-66.21-.001zm151.538 112.554-96.367-207.579c9.787-3.019 18.717-7.999 26.349-14.468l97.196 209.345c3.503 7.512.26 16.429-7.254 19.933-7.542 3.519-16.448.223-19.924-7.231z" fill="#ffffff" data-original="#000000" style=""/></g></g></svg>
