<?xml version="1.0" encoding="utf-8"?>
<!-- Generator: Adobe Illustrator 25.4.1, SVG Export Plug-In . SVG Version: 6.00 Build 0)  -->
<svg version="1.1" id="Layer_1" xmlns="http://www.w3.org/2000/svg" xmlns:xlink="http://www.w3.org/1999/xlink" x="0px" y="0px"
	 viewBox="0 0 973.6 648.8" style="enable-background:new 0 0 973.6 648.8;" xml:space="preserve">
<style type="text/css">
	.st0{fill:#1241D6;}
	.st1{fill:#4A63EC;}
	.st2{fill:url(#SVGID_1_);}
	.st3{fill:#FFFFFF;}
	.st4{fill:url(#SVGID_00000018930414931826878960000010790695771065064891_);}
	.st5{fill:url(#SVGID_00000159438733154254424300000012781175356463600289_);}
	.st6{fill:#2151CB;}
	.st7{fill:#84ACF8;}
	.st8{fill:#222222;}
	.st9{fill:#647DEE;}
	.st10{fill:#7F53AC;}
	.st11{fill:#FFFFFF;stroke:#000000;stroke-miterlimit:10;}
	.st12{fill:url(#SVGID_00000103969343851730532950000007951476518068212129_);}
	.st13{fill:url(#SVGID_00000151509639798755160450000014901280311953150638_);}
	.st14{fill:none;stroke:#000000;stroke-miterlimit:10;}
	.st15{fill:#0037A5;}
	.st16{fill:#8312A5;}
	.st17{fill:url(#SVGID_00000137818552756446716580000008837993993223940023_);}
	.st18{fill:url(#SVGID_00000156570729512893475140000004591126055036406400_);}
	.st19{fill:#6E72FC;}
	.st20{fill:#AD1DEB;}
	.st21{fill:url(#SVGID_00000036252829417450246760000003493803191561833150_);}
	.st22{fill:url(#SVGID_00000146486074866203032690000002168212584139772304_);}
	.st23{fill:#63009E;}
	.st24{fill:url(#SVGID_00000026865293667531814940000010784399306180042142_);}
	.st25{fill:url(#SVGID_00000171701181489629060170000008136611081643350180_);}
	.st26{fill:#536DFE;}
	.st27{fill:#673AB7;}
	.st28{fill:url(#SVGID_00000109017269008497202470000014863275218923446463_);}
	.st29{fill:url(#SVGID_00000044157932325055476780000002752653310222453175_);}
	.st30{fill:#3955A8;}
	.st31{fill:#8E40CD;}
	.st32{fill:url(#SVGID_00000097501605230971205360000002668758749379069100_);}
	.st33{fill:url(#SVGID_00000011003138487115198540000017609347008030913461_);}
	.st34{fill:#F53844;}
	.st35{clip-path:url(#SVGID_00000061465680382774085290000014105932248656202125_);fill:#F53844;}
	.st36{clip-path:url(#SVGID_00000129912906956724565500000017453042620918742686_);fill:#F53844;}
	.st37{clip-path:url(#SVGID_00000116948460424815919670000000746685906757471650_);fill:#F53844;}
	.st38{clip-path:url(#SVGID_00000026863492461248532430000012891096162422151326_);fill:#F53844;}
	.st39{clip-path:url(#SVGID_00000104666572648842076670000011224571955766095256_);fill:#F53844;}
	.st40{fill:url(#SVGID_00000062168467413529514200000012106530005554340488_);}
	.st41{clip-path:url(#SVGID_00000005946158667820517910000010946981037067702689_);fill:#F53844;}
	.st42{clip-path:url(#SVGID_00000065779727306864384740000014824197535549180859_);fill:#F53844;}
	.st43{clip-path:url(#SVGID_00000054243462437962155760000008252122148775804323_);fill:#F53844;}
	.st44{fill:url(#SVGID_00000037666293183819908570000016314121766272647581_);}
	.st45{clip-path:url(#SVGID_00000079487615687756325770000005517667259325842361_);fill:#F53844;}
	.st46{clip-path:url(#SVGID_00000076606164625630983120000016407140559467161271_);fill:#F53844;}
	.st47{fill:url(#SVGID_00000067231993073511803510000015636909972291544736_);}
	.st48{fill:url(#SVGID_00000052078742985791225650000007282179739046879115_);}
	.st49{fill:#42378F;}
	.st50{fill:url(#SVGID_00000056404831763217895370000017616436697251575731_);}
	.st51{fill:url(#SVGID_00000158023064239278720350000003783264623487510413_);}
	.st52{fill:#E55151;}
	.st53{fill:#3A41C6;}
	.st54{fill:url(#SVGID_00000046328046432961438360000016166555774893239470_);}
	.st55{fill:url(#SVGID_00000140001582487966985030000009686907064496506014_);}
	.st56{fill:#440088;}
	.st57{fill:url(#SVGID_00000093865137396017862240000002971407165934274968_);}
	.st58{fill:url(#SVGID_00000146464781534244925110000018040268150770639770_);}
	.st59{fill:#2A00D5;}
	.st60{fill:#D80027;}
	.st61{fill:url(#SVGID_00000160153226527011683550000004218306833545272197_);}
	.st62{fill:url(#SVGID_00000051378773171184741560000000157290475202068149_);}
	.st63{fill:#B33C3C;}
	.st64{fill:url(#SVGID_00000057109534119176358680000010070583302397398150_);}
	.st65{fill:url(#SVGID_00000145766853932484861240000001446969023450633658_);}
	.st66{fill:url(#SVGID_00000066494133392325526310000009853986486959643817_);}
	.st67{fill:url(#SVGID_00000026163873170243845020000007984368177613237936_);}
	.st68{fill:url(#SVGID_00000078016321728838166620000016405231454580055437_);}
	.st69{fill:url(#SVGID_00000078762120690375247880000012537207539797800834_);}
	.st70{fill:url(#SVGID_00000181076034655175204620000011189866440578963074_);}
	.st71{fill:url(#SVGID_00000079444628508304566620000015139534897194674846_);}
</style>
<path d="M145.2,538c8.9,4.8,15.7,11.6,20.6,20.3c4.8,8.8,7.3,18.9,7.3,30.3c0,11.5-2.4,21.6-7.3,30.3c-4.8,8.8-11.7,15.5-20.6,20.3
	c-8.9,4.8-19,7.2-30.5,7.2H70.4V530.8h44.3C126.2,530.8,136.3,533.2,145.2,538z M135,623.6c5.9-3.4,10.5-8.1,13.7-14.1
	c3.2-6.1,4.9-13,4.9-20.8c0-7.8-1.6-14.8-4.9-20.8c-3.3-6.1-7.8-10.8-13.7-14.1c-5.9-3.4-12.6-5-20.2-5h-25v80h25
	C122.3,628.7,129.1,627,135,623.6z"/>
<path d="M258.8,574.6c7.5,7.6,11.2,18.1,11.2,31.6c0,1.4-0.1,3.6-0.3,6.4h-65.3c0.8,5.9,3.5,10.7,8.1,14.2
	c4.6,3.5,10.5,5.3,17.7,5.3c4.6,0,9.1-0.8,13.4-2.3c4.3-1.5,7.7-3.6,10.1-6.1l11.2,10.9c-4.1,4.4-9.2,7.9-15.5,10.4
	c-6.2,2.5-12.8,3.8-19.7,3.8c-8.9,0-16.7-1.8-23.4-5.4c-6.7-3.6-11.8-8.6-15.5-15.1c-3.6-6.5-5.5-14-5.5-22.6
	c0-8.4,1.8-15.8,5.3-22.1c3.5-6.4,8.5-11.4,14.9-15c6.4-3.6,13.8-5.4,22.1-5.4C241,563.2,251.3,567,258.8,574.6z M212.6,584.2
	c-4.1,3.3-6.7,8-7.9,14h47.4c-0.7-5.8-3.1-10.5-7.4-13.9c-4.2-3.4-9.7-5.1-16.4-5.1C221.9,579.2,216.6,580.9,212.6,584.2z"/>
<path d="M344.9,564.9h19.8l-34.5,81.6h-19.8l-34.7-81.6h20.2l11.4,27.9l13.1,34.5l13.2-34.5L344.9,564.9z"/>
<path d="M390.5,642.8c-6.6-3.7-11.7-8.8-15.3-15.2c-3.6-6.4-5.4-13.7-5.4-21.9c0-8.2,1.8-15.5,5.4-21.9c3.6-6.4,8.7-11.5,15.3-15.2
	c6.6-3.7,14.3-5.5,23-5.5c8.6,0,16.2,1.8,22.8,5.5c6.6,3.7,11.7,8.8,15.3,15.2c3.6,6.4,5.4,13.7,5.4,21.9c0,8.2-1.8,15.5-5.4,21.9
	c-3.6,6.4-8.7,11.5-15.3,15.2c-6.6,3.7-14.2,5.5-22.8,5.5C404.8,648.3,397.1,646.5,390.5,642.8z M426.6,628c3.8-2.3,6.7-5.4,8.8-9.3
	c2-3.9,3.1-8.2,3.1-13c0-4.7-1-9.1-3.1-13c-2-3.9-5-7-8.8-9.3c-3.8-2.3-8.2-3.5-13.1-3.5c-5,0-9.3,1.2-13.1,3.5
	c-3.8,2.3-6.7,5.4-8.8,9.3c-2.1,3.9-3.1,8.2-3.1,13c0,4.7,1,9.1,3.1,13c2.1,3.9,5,7,8.8,9.3c3.8,2.3,8.2,3.5,13.1,3.5
	C418.5,631.5,422.8,630.3,426.6,628z"/>
<path d="M474.2,530.8h18.5v115.7h-18.5V530.8z"/>
<path d="M593,564.9v81.6h-16.5l-0.2-10.6c-6.9,8.2-16.2,12.2-27.8,12.2c-6.9,0-13-1.6-18.2-4.7c-5.2-3.1-9.2-7.6-12-13.3
	c-2.8-5.7-4.2-12.4-4.2-20.2v-45.1h18.5v44c0,7.2,1.7,12.7,5.1,16.7c3.4,4,8.1,5.9,14,5.9c6.7,0,12.2-2.2,16.4-6.6
	c4.2-4.4,6.3-10.1,6.3-17v-43H593z"/>
<path d="M669.5,643.7c-3.2,1.4-6.2,2.5-9,3.1c-2.8,0.6-5.9,0.9-9.3,0.9c-8.6,0-15.2-2.5-19.8-7.4c-4.6-5-6.9-12.2-6.9-21.8v-37.8
	H609v-15.7h15.4v-21.3l18.3-2v23.3h23.5v15.7h-23.5v37.8c0,4.2,1,7.4,2.9,9.6c1.9,2.2,4.8,3.3,8.5,3.3c3.3,0,6.7-0.8,10.2-2.5
	L669.5,643.7z"/>
<path d="M684,549.4c-2.2-2.1-3.3-4.8-3.3-8c0-3.4,1.1-6.2,3.3-8.3c2.2-2.1,5-3.2,8.4-3.2c3.5,0,6.4,1.1,8.7,3.2
	c2.3,2.1,3.4,4.9,3.4,8.3c0,3.2-1.1,5.9-3.4,8c-2.3,2.1-5.2,3.2-8.7,3.2C689,552.6,686.2,551.6,684,549.4z M683.2,564.9h18.5v81.6
	h-18.5V564.9z"/>
<path d="M739.7,642.8c-6.6-3.7-11.7-8.8-15.3-15.2c-3.6-6.4-5.4-13.7-5.4-21.9c0-8.2,1.8-15.5,5.4-21.9c3.6-6.4,8.7-11.5,15.3-15.2
	c6.6-3.7,14.3-5.5,23-5.5c8.6,0,16.2,1.8,22.8,5.5c6.6,3.7,11.7,8.8,15.3,15.2c3.6,6.4,5.4,13.7,5.4,21.9c0,8.2-1.8,15.5-5.4,21.9
	c-3.6,6.4-8.7,11.5-15.3,15.2c-6.6,3.7-14.2,5.5-22.8,5.5C754,648.3,746.3,646.5,739.7,642.8z M775.8,628c3.8-2.3,6.7-5.4,8.8-9.3
	c2-3.9,3.1-8.2,3.1-13c0-4.7-1-9.1-3.1-13c-2-3.9-5-7-8.8-9.3c-3.8-2.3-8.2-3.5-13.1-3.5c-5,0-9.3,1.2-13.1,3.5
	c-3.8,2.3-6.8,5.4-8.8,9.3c-2.1,3.9-3.1,8.2-3.1,13c0,4.7,1,9.1,3.1,13c2.1,3.9,5,7,8.8,9.3c3.8,2.3,8.2,3.5,13.1,3.5
	C767.6,631.5,772,630.3,775.8,628z"/>
<path d="M886.6,567.9c5.3,3.1,9.4,7.6,12.2,13.3c2.9,5.7,4.3,12.5,4.3,20.2v45.1h-18.5v-44c0-7.2-1.8-12.7-5.3-16.7
	c-3.5-4-8.4-5.9-14.5-5.9c-6.7,0-12.2,2.2-16.5,6.7s-6.4,10.1-6.4,16.9v43h-18.5v-81.6h16.5l0.2,10.7c6.9-8.3,16.4-12.4,28.3-12.4
	C875.2,563.2,881.3,564.8,886.6,567.9z"/>
<g>
	<path class="st30" d="M211.1,419.6H89.8c-4.5,0-8.1-3.6-8.1-8.1v-0.6c0-4.5,3.6-8.1,8.1-8.1h121.3c4.5,0,8.1,3.6,8.1,8.1v0.6
		C219.2,415.9,215.6,419.6,211.1,419.6z"/>
	<path class="st30" d="M309.5,420h-58.4c-5,0-9-4-9-9v-0.7c0-5,4-9,9-9h58.4c5,0,9,4,9,9v0.7C318.5,416,314.5,420,309.5,420z"/>
	<path class="st30" d="M344,373.5H8.9c-4.9,0-8.9-4-8.9-8.9l0-0.7c0-4.9,4-8.9,8.9-8.9H344c4.9,0,8.9,4,8.9,8.9v0.7
		C352.9,369.6,348.9,373.5,344,373.5z"/>
	<path class="st30" d="M271.9,326.5H154.8c-4.8,0-8.7-3.9-8.7-8.7v-0.7c0-4.8,3.9-8.7,8.7-8.7h117.2c4.8,0,8.7,3.9,8.7,8.7v0.7
		C280.6,322.6,276.7,326.5,271.9,326.5z"/>
	<path class="st30" d="M360.1,326.5h-48.2c-4.8,0-8.7-3.9-8.7-8.7v-0.7c0-4.8,3.9-8.7,8.7-8.7h48.2c4.8,0,8.7,3.9,8.7,8.7v0.7
		C368.9,322.6,365,326.5,360.1,326.5z"/>
	<path class="st30" d="M207.3,279.3h120.4c4.6,0,8.4-3.7,8.4-8.4v-0.7c0-4.6-3.7-8.4-8.4-8.4H207.3c-4.6,0-8.4,3.7-8.4,8.4v0.7
		C199,275.6,202.7,279.3,207.3,279.3z"/>
	<path class="st30" d="M112.2,279.3h57.5c4.6,0,8.4-3.7,8.4-8.4v-0.7c0-4.6-3.7-8.4-8.4-8.4h-57.5c-4.6,0-8.4,3.7-8.4,8.4v0.7
		C103.9,275.6,107.6,279.3,112.2,279.3z"/>
	<path class="st30" d="M389.5,234.9H92.4c-5.9,0-10.7-4.8-10.7-10.7v-0.8c0-5.9,4.8-10.7,10.7-10.7h297.1c5.9,0,10.7,4.8,10.7,10.7
		v0.8C400.2,230.1,395.4,234.9,389.5,234.9z"/>
	<path class="st30" d="M430.4,420.5h-73.7c-5,0-9-4-9-9v-0.7c0-5,4-9,9-9h73.7c5,0,9,4,9,9v0.7C439.4,416.5,435.4,420.5,430.4,420.5
		z"/>
	<path class="st30" d="M60,326.1h57.5c4.6,0,8.4-3.7,8.4-8.4v-0.7c0-4.6-3.7-8.4-8.4-8.4H60c-4.6,0-8.4,3.7-8.4,8.4v0.7
		C51.7,322.4,55.4,326.1,60,326.1z"/>
	<linearGradient id="SVGID_1_" gradientUnits="userSpaceOnUse" x1="365.0291" y1="316.5814" x2="530.8325" y2="316.5814">
		<stop  offset="0.303" style="stop-color:#3955A8"/>
		<stop  offset="0.3499" style="stop-color:#4353AC"/>
		<stop  offset="0.5294" style="stop-color:#634BBA"/>
		<stop  offset="0.7019" style="stop-color:#7B45C5"/>
		<stop  offset="0.8626" style="stop-color:#8941CB"/>
		<stop  offset="1" style="stop-color:#8E40CD"/>
	</linearGradient>
	<path class="st2" d="M482.5,407.4c15.3-8.7,27.2-21,35.7-36.7c8.4-15.7,12.7-33.8,12.7-54.1c0-20.3-4.2-38.4-12.7-54.1
		c-8.4-15.7-20.3-28-35.7-36.7c-15.3-8.7-32.9-13.1-52.6-13.1H386c-11.6,0-20.9,9.4-20.9,20.9v166c0,11.6,9.4,20.9,20.9,20.9h43.9
		C449.6,420.5,467.2,416.2,482.5,407.4z"/>
	
		<linearGradient id="SVGID_00000034071325191220104260000006388813652008882838_" gradientUnits="userSpaceOnUse" x1="190.3575" y1="242.8069" x2="973.5782" y2="242.8069">
		<stop  offset="0.3853" style="stop-color:#3955A8"/>
		<stop  offset="0.4437" style="stop-color:#4751AE"/>
		<stop  offset="0.592" style="stop-color:#664ABC"/>
		<stop  offset="0.7368" style="stop-color:#7C44C5"/>
		<stop  offset="0.8751" style="stop-color:#8941CB"/>
		<stop  offset="1" style="stop-color:#8E40CD"/>
	</linearGradient>
	<path style="fill:url(#SVGID_00000034071325191220104260000006388813652008882838_);" d="M898.6,168.1c-2.7-1.8-5.5-3.5-8.3-5.1
		c-25.2-14.3-54.1-21.4-86.6-21.5c-16,0-30.1-10.4-35.1-25.5C746.3,48.8,680.1,0,601.8,0c-61,0-114.7,29.6-146,74.6
		c-8.6,12.4-22.7,20-37.8,20h0c-19.8,0-37.3,4.4-52.6,13.1c-15.3,8.7-27.2,21-35.7,36.7c-0.8,1.4-1.5,2.8-2.2,4.3
		c-1.5,0.9-3.3,1.4-5.3,1.4l-123.6,0c-4,0-7.6,2.9-8.2,6.9c-0.7,5,3.1,9.3,8,9.3l126.5,0l103.1-0.8c30,0,56.1,4.6,79.4,17.2
		c23.2,12.6,41.2,30.3,53.9,53.3c12.7,22.9,19,49.4,19,79.4c0,30-6.4,56.5-19,79.4c-12.7,22.9-30.7,40.7-53.9,53.3
		c-23.2,12.6-49.9,18.8-79.9,18.8c0,0-20.9,0-45.4,0c-0.4,0.1-0.8,0.1-1.2,0.1l-173.6-0.1c-4.4,0-8.8,3.7-8.8,8.2v4
		c0,4.5,3.6,6.6,8.1,6.6l533.8-3.3h63.2c32.6,0,61.5-7.2,86.8-21.5c25.3-14.3,44.9-34.4,58.8-60.2c1.7-3.2,3.4-6.5,4.9-9.8
		c11.1-20.3,17.8-42.7,19.3-66.1C977.5,255.3,944.8,195.3,898.6,168.1z"/>
</g>
</svg>
