<?xml version="1.0" encoding="utf-8"?>
<!-- Generator: Adobe Illustrator 25.4.1, SVG Export Plug-In . SVG Version: 6.00 Build 0)  -->
<svg version="1.1" id="_x2014_ÎÓÈ_x5F_1" xmlns="http://www.w3.org/2000/svg" xmlns:xlink="http://www.w3.org/1999/xlink"
	 x="0px" y="0px" viewBox="0 0 608.2 360.8" style="enable-background:new 0 0 608.2 360.8;" xml:space="preserve">
<style type="text/css">
	.st0{opacity:0.8;fill:url(#SVGID_1_);}
	.st1{fill:url(#SVGID_00000142155983077108521440000000669992317377321345_);}
	.st2{opacity:0.8;fill:url(#SVGID_00000032621639414659650240000011465740974201779624_);}
	.st3{opacity:0.44;fill:#391C56;}
	.st4{opacity:0.79;fill:#35236D;}
	.st5{fill:#283C70;}
	.st6{fill:url(#SVGID_00000151517352688376321890000008713667247460272831_);}
	.st7{fill:url(#SVGID_00000127022116711487602410000001218459795858959803_);}
	.st8{fill:#24126A;}
	.st9{fill:url(#SVGID_00000035517955450767176750000009045311450331191742_);}
	.st10{fill:url(#SVGID_00000105388015324102551920000013085531004029838247_);}
	.st11{fill:url(#SVGID_00000085251541087288281920000004231581979897549503_);}
	.st12{fill:#3955A8;}
	.st13{opacity:0.3;}
	.st14{clip-path:url(#SVGID_00000014598104373307999280000007026657387697248683_);}
	.st15{fill:url(#SVGID_00000110429486128765950640000010530211540661980800_);}
	.st16{opacity:0.8;fill:url(#SVGID_00000108277271421691205430000014953474522106930313_);}
	.st17{fill:#FFFFFF;}
	.st18{opacity:0.15;}
	.st19{clip-path:url(#SVGID_00000036224391429435625640000017852365216556007851_);}
	.st20{fill:url(#SVGID_00000043429166479399067430000007638790609839486379_);}
	.st21{fill:url(#SVGID_00000023280300047439848780000001381638877806445202_);}
	.st22{opacity:0.51;fill:#453C9E;}
	.st23{opacity:0.4;clip-path:url(#SVGID_00000036224391429435625640000017852365216556007851_);fill:#24126A;}
	.st24{fill:#42E8E0;}
	.st25{fill:url(#SVGID_00000073692778025138447000000007714200090266717606_);}
	.st26{fill:#BCBEFF;}
	.st27{opacity:0.51;}
	.st28{fill:#453C9E;}
	.st29{fill:#5351AF;}
	.st30{fill:url(#SVGID_00000044887817407989300780000014881505150512104608_);}
	.st31{fill:url(#SVGID_00000103959701321562062420000005230193529422240685_);}
	.st32{fill:url(#SVGID_00000142159775239450371200000008676007488967862432_);}
	.st33{fill:url(#SVGID_00000090992847786875403070000003129280517347999897_);}
	.st34{filter:url(#Adobe_OpacityMaskFilter);}
	.st35{filter:url(#Adobe_OpacityMaskFilter_00000044899895081540895850000014997933124547939512_);}
	
		.st36{mask:url(#SVGID_00000096022132552043599850000014343897432330590121_);fill:url(#SVGID_00000016068791993321639630000011084823893128483469_);}
	.st37{opacity:0.78;fill:url(#SVGID_00000133525332440483694180000010633274543763878020_);}
	.st38{fill:url(#SVGID_00000057135279944611588450000001425806813024405182_);}
	.st39{fill:url(#SVGID_00000001662294437669366370000013953954307254344610_);}
	.st40{fill:url(#SVGID_00000132805251547465893580000009026194673263916180_);}
	.st41{fill:#6767C1;}
	.st42{opacity:0.5;fill:#42E8E0;}
	.st43{opacity:0.67;}
	.st44{fill:url(#SVGID_00000023261138886009676620000014627688465312087716_);}
	.st45{fill:url(#SVGID_00000173878476591516529500000015203499358148149155_);}
	.st46{fill:url(#SVGID_00000149360790012066881970000007534205706192987057_);}
	.st47{fill:url(#SVGID_00000094599367962622987280000006791399976810628268_);}
	.st48{fill:url(#SVGID_00000051343377518207239270000017818967023184556978_);}
	.st49{filter:url(#Adobe_OpacityMaskFilter_00000149350422128170434170000004593217102155285648_);}
	.st50{filter:url(#Adobe_OpacityMaskFilter_00000026856915193538655870000001349187029606129849_);}
	
		.st51{mask:url(#SVGID_00000103227151129970958540000010932808593783731848_);fill:url(#SVGID_00000126314399845633940920000007518596193352330892_);}
	.st52{opacity:0.78;fill:url(#SVGID_00000082352154119378376990000014273410754796427677_);}
	.st53{fill:url(#SVGID_00000141437902916565071050000017194487315473019039_);}
	.st54{fill:url(#SVGID_00000088828919723663725640000006137460761526385033_);}
	.st55{fill:url(#SVGID_00000151530010806065875200000002873521311750333083_);}
	.st56{fill:url(#SVGID_00000083069201820053939820000012431318999149409696_);}
	.st57{fill:url(#SVGID_00000156585053193614003110000006031480544096379070_);}
	.st58{fill:url(#SVGID_00000182488341983921566240000018176277812248446596_);}
	.st59{fill:url(#SVGID_00000009551416635293587670000011931816353488516497_);}
</style>
<radialGradient id="SVGID_1_" cx="-5163.4609" cy="54.4057" r="427.6295" gradientTransform="matrix(-1 0 0 1 -4550.8955 0)" gradientUnits="userSpaceOnUse">
	<stop  offset="0" style="stop-color:#8E40CD"/>
	<stop  offset="9.574151e-02" style="stop-color:#8044C7"/>
	<stop  offset="0.3365" style="stop-color:#614BB9"/>
	<stop  offset="0.5716" style="stop-color:#4B51B0"/>
	<stop  offset="0.7966" style="stop-color:#3E54AA"/>
	<stop  offset="1" style="stop-color:#3955A8"/>
</radialGradient>
<path class="st0" d="M20.1,334.5l105.1,0l0.1,0l47.5-27.4l0,16.2l-31.3,18.1c-1.2-0.5-3-0.5-4.1,0.2c-1.2,0.7-1.2,1.9,0,2.6
	c1.2,0.7,3.3,0.7,4.5,0c1.1-0.6,1.2-1.7,0.3-2.4l31.3-18.1l0-16.9h-0.2l27.6-15.9h62.6l0.1,0l86-49.7l10.3,5.9l-167,96.4l0,17.4h0.7
	l0-17l167-96.4l12.7,7.3l-86.1,49.7l0,8.9l-15.3,8.8v20.4l-29.6,17.1c-1.2-0.5-3-0.5-4.1,0.2c-0.5,0.3-0.7,0.6-0.9,0.9h6.2
	c-0.1-0.2-0.3-0.5-0.5-0.7l29.6-17.1v-20.4l14.6-8.4l0,32.7l8.6,5l-15.5,8.9h1.4l14.8-8.5l14.8,8.5h1.4l-24.8-14.3l0-41.6l86.1-49.7
	l11.6,6.7L324.6,297c-1.2-0.5-3-0.5-4.1,0.2c-1.2,0.7-1.2,1.9,0,2.6c1.2,0.7,3.3,0.7,4.5,0c1.1-0.6,1.2-1.6,0.3-2.4l60.9-35.2
	l11.2,6.4l-72.9,42.1h-19.8c-0.1-0.3-0.4-0.7-0.9-0.9c-1.2-0.7-3.3-0.7-4.5,0s-1.2,1.9,0,2.6c1.2,0.7,3.3,0.7,4.5,0
	c0.5-0.3,0.8-0.6,0.9-0.9h20l0.1,0l73.3-42.3l4.5,2.6l3.5-2l17.5,10.1l0,14l-14.4,8.3v0h-22.6l-0.1,0l-24.8,14.3
	c-1.2-0.5-3-0.5-4.1,0.2c-1.2,0.7-1.2,1.9,0,2.6c1.2,0.7,3.3,0.7,4.5,0c1.1-0.6,1.2-1.7,0.3-2.4l24.4-14.1H408l-42.4,24.5
	c-1.2-0.6-3-0.5-4.2,0.1c-1.2,0.7-1.2,1.9,0,2.6c1.2,0.7,3.3,0.7,4.5,0c1.1-0.6,1.2-1.6,0.4-2.3l52.9-30.6l0,6.8l-31.5,18.2v12.8
	l-25.6,14.8c-1.2-0.5-3-0.5-4.1,0.2c-1.2,0.7-1.2,1.9,0,2.6c1.2,0.7,3.3,0.7,4.5,0c1.1-0.6,1.2-1.7,0.3-2.4l25.6-14.8v-12.8
	l31.5-18.2l0-7.6l4.4-2.5l0-14.9l-17.5-10.1l11.5-6.6l35.9,20.8l0,23.6l-24.4,14.1c-1.2-0.6-3-0.5-4.2,0.1c-1.2,0.7-1.2,1.9,0,2.6
	c1.2,0.7,3.3,0.7,4.5,0c1.1-0.6,1.2-1.6,0.4-2.3l23.7-13.7l0,19.1l-18.7,10.8l0,23.1h0.7l0-22.7l18-10.4l0,33.1h0.7l0-77.8
	L419,262.2l12.9-7.4l47,27.1l0,64.6l22.6,13l0,1.3h0.7v-1.7l-22.6-13l0-64.6l-47-27.1l9.6-5.5l63.4,36.6l0,55.1l35.1,20.2h1.4
	l-35.8-20.6l0-55.1l-63.4-36.6l15.5-8.9l105.5,60.9l0,27.4l36.2,20.9v-0.8l-35.4-20.5l0-27.4l-59.3-34.3h46.9l47.8,27.6v-0.8
	L552.3,265H504l-44.9-25.9l18-10.4l38.6,22.3l62,0l22.3,12.9v-0.8l-4.9-2.8l4.9,0v-0.7l-6.1,0l-16-9.2l-62,0l-10.8-6.2h26.4l0.1,0
	l13.2-7.6l55.1,0l0.2,0.1v-0.8l-54,0l14.9-8.6c1.2,0.5,3,0.5,4.1-0.2c1.2-0.7,1.2-1.9,0-2.6c-1.2-0.7-3.3-0.7-4.5,0
	c-1.1,0.6-1.2,1.7-0.3,2.4l-28.9,16.7h-27.4l-26.1-15l9.6-5.6l-6.2-3.6h18l23.5,13.6c-0.9,0.7-0.8,1.7,0.3,2.4
	c1.2,0.7,3.3,0.7,4.5,0c1.2-0.7,1.2-1.9,0-2.6c-1.1-0.6-2.9-0.7-4.1-0.2l-24.1-13.9H480l-13.2-7.6l8.1-4.7h14.4l12.6-7.3h9.4
	l21.3,12.3c-1,0.7-0.9,1.7,0.3,2.4c1.2,0.7,3.3,0.7,4.5,0c1.2-0.7,1.2-1.9,0-2.6c-1.1-0.6-2.8-0.7-4-0.2l-21.8-12.6h-9.8l-12.6,7.3
	h-13l25.9-15h14l29.2,16.8l54.8,0v-0.7l-54.6,0l-29.2-16.8h-14.4l-0.1,0l-35.7,20.6l-9.4-5.4l40.3-23.3l28.4,0l23.5,13.5l51.1,0
	v-0.7l-50.9,0l-22.2-12.8l73.1,0V181l-103.1,0l-0.1,0L456,204.6l-10.6-6.1l56.2-32.5l98.4,0v-0.7l-71.7,0l71.7-41.4v-0.8l-73.1,42.2
	l-24.8,0l53.3-30.8v-6.8l25.5-14.7c1.2,0.5,3,0.5,4.1-0.2c1.2-0.7,1.2-1.9,0-2.6c-1.2-0.7-3.3-0.7-4.5,0c-1.1,0.6-1.2,1.6-0.3,2.4
	l-13.9,8l0-18.6L600,82.6v-0.8l-34.4,19.8l0,19.4l-10.9,6.3v6.8l-53.7,31l0.2,0.3l-56.5,32.6l-10.3-5.9l58-33.5l0-55.1L600,41.4
	v-0.8l-90.6,52.3l0-49.8l69.4-40c0,0,0.1,0.1,0.1,0.1c1.2,0.7,3.3,0.7,4.5,0c1.2-0.7,1.2-1.9,0-2.6c-1.2-0.7-3.3-0.7-4.5,0
	c-0.9,0.5-1.2,1.3-0.7,2l-69.5,40.1l0,50.7l-16.9,9.8l0,55.1l-58,33.5l-9-5.2l44.7-25.8l0-30.2l-0.2-0.1L418.4,101V90.7l28.8-16.6
	c1.2,0.5,3,0.5,4.1-0.2c1.2-0.7,1.2-1.9,0-2.6c-1.2-0.7-3.3-0.7-4.5,0c-1.1,0.6-1.2,1.6-0.3,2.4l-28.8,16.6v11.1l0.2,0.1l50.9,29.4
	l0,29.4l-33.8,19.5l0-12.6l15.5-8.9c1.2,0.5,3,0.5,4.1-0.2c1.2-0.7,1.2-1.9,0-2.6c-1.2-0.7-3.3-0.7-4.5,0c-1.1,0.6-1.2,1.6-0.3,2.4
	l-15.5,8.9l0,13.4l-10.2,5.9l-12.1-7l0-21.9l22.8-13.2l0-15.2l-0.2-0.1l-48-27.7c0.9-0.7,0.8-1.7-0.3-2.4c-1.2-0.7-3.3-0.7-4.5,0
	c-1.2,0.7-1.2,1.9,0,2.6c1.1,0.6,2.9,0.7,4.1,0.2l48.2,27.8l0,14.3l-22.1,12.8l0-15.1l-0.2-0.1l-29.4-17c0.9-0.7,0.8-1.7-0.3-2.4
	c-1.2-0.7-3.3-0.7-4.5,0c-1.2,0.7-1.2,1.9,0,2.6c1.1,0.6,2.9,0.7,4.1,0.2l29.5,17.1l0,37l-8.5-4.9l-14,8.1l-12.7-7.3l0-17.8
	l-0.2-0.1l-33.5-19.3l0-16.8c0.7,0,1.4-0.2,1.9-0.5c1.2-0.7,1.2-1.9,0-2.6c-1.2-0.7-3.3-0.7-4.5,0c-1.2,0.7-1.2,1.9,0,2.6
	c0.5,0.3,1.2,0.5,1.9,0.5l0,17.2l0.2,0.1l33.5,19.3l0,17l-54.5-31.5l0-33.4l29.6-17.1l27.1,0l0.1,0l46.6-26.9c1.2,0.5,3,0.5,4.1-0.2
	c1.2-0.7,1.2-1.9,0-2.6c-1.2-0.7-3.3-0.7-4.5,0c-1.1,0.6-1.2,1.7-0.3,2.4l-46.1,26.6l-25.7,0l85.5-49.4c1.2,0.5,3,0.5,4.1-0.2
	c1.2-0.7,1.2-1.9,0-2.6c-1.2-0.7-3.3-0.7-4.5,0c-1.1,0.6-1.2,1.7-0.3,2.4L320,108.9l0,34.2l0.2,0.1l67.7,39.1l-13.6,7.9l-115.6-66.8
	l0-39.8l-0.2-0.1l-39.3-22.7c0.9-0.7,0.8-1.7-0.3-2.4c-1.2-0.7-3.3-0.7-4.5,0c-1.2,0.7-1.2,1.9,0,2.6c1.1,0.6,2.9,0.7,4.1,0.2
	L258,84l0,39.8l0.2,0.1l115.5,66.7l-13,7.5l-114.4-66l-68.2,0l-42.6-24.6l0-37.8c0.4-0.1,0.9-0.2,1.2-0.4c1.2-0.7,1.2-1.9,0-2.6
	c-1.2-0.7-3.3-0.7-4.5,0c-1.2,0.7-1.2,1.9,0,2.6c0.7,0.4,1.6,0.6,2.5,0.5l0,38.1l0.2,0.1l43,24.8l68.2,0l96.5,55.7l-19.4,0l-32.9-19
	h-25.4l-0.1,0l-35.2,20.3c-1.2-0.5-3-0.5-4.1,0.2c-1.2,0.7-1.2,1.9,0,2.6c1.2,0.7,3.3,0.7,4.5,0c1.1-0.6,1.2-1.7,0.3-2.4l34.8-20.1
	h25l32.9,19l20.8,0l16.1,9.3l-34.6,20l-9.9-5.7v-14.9l-25-14.4c0.9-0.7,0.8-1.7-0.3-2.4c-1.2-0.7-3.3-0.7-4.5,0
	c-1.2,0.7-1.2,1.9,0,2.6c1.1,0.6,2.9,0.7,4.1,0.2l25,14.4v14.1L288,197h-12.6l-0.1,0l-15.1,8.7c-1.2-0.5-3-0.5-4.1,0.2
	c-1.2,0.7-1.2,1.9,0,2.6c1.2,0.7,3.3,0.7,4.5,0c1.1-0.6,1.2-1.7,0.3-2.4l14.6-8.4h12.3l36.7,21.2l-6.7,3.9l21.3,12.3l-10,5.8h-15.1
	l-10.8-6.2c0.9-0.7,0.7-1.7-0.4-2.3c-1.2-0.7-3.3-0.7-4.5,0c-1.2,0.7-1.2,1.9,0,2.6c1.1,0.7,2.9,0.7,4.1,0.2l11.3,6.5h14l-25.4,14.7
	l-59.8-34.5l-43,0l-0.1,0l-24.2,14c-1.2-0.5-3-0.5-4.1,0.2c-1.2,0.7-1.2,1.9,0,2.6c1.2,0.7,3.3,0.7,4.5,0c1.1-0.6,1.2-1.7,0.3-2.4
	l23.8-13.7l42.7,0l46.1,26.6h-19.7l-19.3-11.1c0.9-0.7,0.8-1.7-0.3-2.4c-1.2-0.7-3.3-0.7-4.5,0c-1.2,0.7-1.2,1.9,0,2.6
	c1.1,0.6,2.9,0.7,4.1,0.2l19.8,11.4h21.2l11.9,6.9l-30.4,17.5l-97.1,0L99,230.6c0.9-0.7,0.8-1.7-0.3-2.4c-1.2-0.7-3.3-0.7-4.5,0
	c-1.2,0.7-1.2,1.9,0,2.6c1.1,0.6,2.9,0.7,4.1,0.2l75.9,43.8l96,0l-12,7l-71.9,0l-0.1,0l-35.4,20.5c-1.2-0.5-3-0.5-4.1,0.2
	c-1.2,0.7-1.2,1.9,0,2.6c1.2,0.7,3.3,0.7,4.5,0c1.1-0.6,1.2-1.7,0.3-2.4l35-20.2l71.9,0l0.1,0l81.4-47l9,5.2l-85.6,49.4h-62.6
	l-0.1,0L125,333.8l-104.8,0"/>
<radialGradient id="SVGID_00000005232204065661603900000014312658763070839702_" cx="16.7309" cy="332.6192" r="4.8722" gradientUnits="userSpaceOnUse">
	<stop  offset="0" style="stop-color:#8E40CD"/>
	<stop  offset="9.574151e-02" style="stop-color:#8044C7"/>
	<stop  offset="0.3365" style="stop-color:#614BB9"/>
	<stop  offset="0.5716" style="stop-color:#4B51B0"/>
	<stop  offset="0.7966" style="stop-color:#3E54AA"/>
	<stop  offset="1" style="stop-color:#3955A8"/>
</radialGradient>
<ellipse style="fill:url(#SVGID_00000005232204065661603900000014312658763070839702_);" cx="20.1" cy="334.1" rx="3.3" ry="2.2"/>
<radialGradient id="SVGID_00000031898928244992012590000005237361339354498234_" cx="-5040.4951" cy="189.1343" r="121.0847" gradientTransform="matrix(-1 0 0 1 -4550.8955 0)" gradientUnits="userSpaceOnUse">
	<stop  offset="0" style="stop-color:#8E40CD"/>
	<stop  offset="9.574151e-02" style="stop-color:#8044C7"/>
	<stop  offset="0.3365" style="stop-color:#614BB9"/>
	<stop  offset="0.5716" style="stop-color:#4B51B0"/>
	<stop  offset="0.7966" style="stop-color:#3E54AA"/>
	<stop  offset="1" style="stop-color:#3955A8"/>
</radialGradient>
<polygon style="opacity:0.8;fill:url(#SVGID_00000031898928244992012590000005237361339354498234_);" points="486,222.7 
	402.7,270.9 319.3,222.7 402.7,174.6 "/>
<g>
	<g>
		<polygon class="st3" points="402.6,332.6 230.4,233.2 402.6,133.7 574.8,233.2 		"/>
	</g>
	<g>
		<polygon class="st4" points="402.6,317.2 257.1,233.2 402.6,149.2 548.1,233.2 		"/>
	</g>
	<g>
		<polygon class="st5" points="402.6,299.3 288.1,233.2 402.6,167.1 517.1,233.2 		"/>
	</g>
</g>
<g>
	<g>
		<g>
			<g>
				<g>
					<g>
						<g>
							
								<linearGradient id="SVGID_00000119833684490836957840000000385927043712102538_" gradientUnits="userSpaceOnUse" x1="172.1549" y1="139.6708" x2="346.0833" y2="139.6708" gradientTransform="matrix(-1 0 0 1 709.138 0)">
								<stop  offset="0" style="stop-color:#C0BFF6"/>
								<stop  offset="0.2938" style="stop-color:#C5C4F7"/>
								<stop  offset="0.6399" style="stop-color:#D3D2F9"/>
								<stop  offset="1" style="stop-color:#E9E9FD"/>
							</linearGradient>
							<path style="fill:url(#SVGID_00000119833684490836957840000000385927043712102538_);" d="M363.1,150.5l18.8-111.8l-1.5-0.6
								l2.3-1.3l0,0c0.4-0.3,1.1-0.3,1.8,0.1L535,123.8c1.2,0.7,2.2,2.5,2,3.8l-19,112.7c-0.1,0.6-0.4,1-0.8,1.1l0,0l-2.2,1.3
								l-0.4-2.1l0.1,0L365,154.3C363.8,153.6,362.9,151.8,363.1,150.5z"/>
							
								<linearGradient id="SVGID_00000120550587306558296760000015237381504099130271_" gradientUnits="userSpaceOnUse" x1="172.156" y1="184.2755" x2="202.0212" y2="184.2755" gradientTransform="matrix(-1 0 0 1 709.138 0)">
								<stop  offset="0" style="stop-color:#5761D7"/>
								<stop  offset="0.1779" style="stop-color:#5C66D9"/>
								<stop  offset="0.3876" style="stop-color:#6A73DF"/>
								<stop  offset="0.6134" style="stop-color:#8289E8"/>
								<stop  offset="0.849" style="stop-color:#A3A7F5"/>
								<stop  offset="1" style="stop-color:#BCBEFF"/>
							</linearGradient>
							<path style="fill:url(#SVGID_00000120550587306558296760000015237381504099130271_);" d="M534.2,126.9l2.5-1.1
								c0.3,0.6,0.4,1.3,0.3,1.9l-19,112.7c-0.1,0.6-0.4,1-0.8,1.1l0,0l-2.2,1.3l-0.4-2.1l0.1,0l-7.6-4.4L534.2,126.9z"/>
							<path class="st8" d="M362.7,155.7l150.6,86.9c1.2,0.7,2.2,0.3,2.4-0.9l19-112.7c0.2-1.3-0.7-3.1-2-3.8L382.1,38.3
								c-1.2-0.7-2.2-0.3-2.4,0.9l-19,112.7C360.5,153.1,361.4,155,362.7,155.7z"/>
							<g>
								
									<radialGradient id="SVGID_00000150093845185389084330000003276144218496772260_" cx="447.6993" cy="140.4809" r="92.93" gradientUnits="userSpaceOnUse">
									<stop  offset="0" style="stop-color:#3955A8"/>
									<stop  offset="0.2034" style="stop-color:#3E54AA"/>
									<stop  offset="0.4284" style="stop-color:#4B51B0"/>
									<stop  offset="0.6635" style="stop-color:#614BB9"/>
									<stop  offset="0.9043" style="stop-color:#8044C7"/>
									<stop  offset="1" style="stop-color:#8E40CD"/>
								</radialGradient>
								<polygon style="fill:url(#SVGID_00000150093845185389084330000003276144218496772260_);" points="381.6,40.4 532.8,127.7 
									513.7,240.6 362.6,153.4 								"/>
							</g>
						</g>
						<g>
							
								<linearGradient id="SVGID_00000028289146828405144570000004340986882449450121_" gradientUnits="userSpaceOnUse" x1="195.4573" y1="232.9425" x2="441.101" y2="232.9425" gradientTransform="matrix(-1 0 0 1 709.138 0)">
								<stop  offset="0" style="stop-color:#5761D7"/>
								<stop  offset="0.1779" style="stop-color:#5C66D9"/>
								<stop  offset="0.3876" style="stop-color:#6A73DF"/>
								<stop  offset="0.6134" style="stop-color:#8289E8"/>
								<stop  offset="0.849" style="stop-color:#A3A7F5"/>
								<stop  offset="1" style="stop-color:#BCBEFF"/>
							</linearGradient>
							<path style="fill:url(#SVGID_00000028289146828405144570000004340986882449450121_);" d="M268,209l8.2,4.3l82.4-47.6
								c1.4-0.8,3.8-0.7,5.4,0.2l142.1,82c1.4-0.8,7.6-3.7,7.6-3.7l-3,4.9c0,0,0,0,0,0c-0.1,0.3-0.4,0.7-0.8,0.9L423,300.2
								c-1.4,0.8-3.8,0.7-5.4-0.2l-145.4-84c-0.7-0.4-1.1-0.8-1.2-1.3l0,0L268,209z"/>
							
								<linearGradient id="SVGID_00000080193397277409293170000001504077322844043948_" gradientUnits="userSpaceOnUse" x1="277.9944" y1="226.2258" x2="523.7691" y2="226.2258" gradientTransform="matrix(-1 0 0 1 709.138 0)">
								<stop  offset="0" style="stop-color:#C0BFF6"/>
								<stop  offset="0.2938" style="stop-color:#C5C4F7"/>
								<stop  offset="0.6399" style="stop-color:#D3D2F9"/>
								<stop  offset="1" style="stop-color:#E9E9FD"/>
							</linearGradient>
							<path style="fill:url(#SVGID_00000080193397277409293170000001504077322844043948_);" d="M269.3,210.4l149,86
								c1.6,0.9,4.1,1,5.5,0.2l88.9-51.3c1.4-0.8,1.2-2.2-0.4-3.2l-149-86c-1.6-0.9-4.1-1-5.5-0.2l-88.9,51.3
								C267.5,208,267.7,209.4,269.3,210.4z"/>
							<path class="st8" d="M269.3,210.4l149,86c1.6,0.9,4.1,1,5.5,0.2l88.9-51.3c1.4-0.8,1.2-2.2-0.4-3.2l-149-86
								c-1.6-0.9-4.1-1-5.5-0.2l-88.9,51.3C267.5,208,267.7,209.4,269.3,210.4z"/>
							<path class="st12" d="M269.3,210.4l149,86c1.6,0.9,4.1,1,5.5,0.2l88.9-51.3c1.4-0.8,1.2-2.2-0.4-3.2l-149-86
								c-1.6-0.9-4.1-1-5.5-0.2l-88.9,51.3C267.5,208,267.7,209.4,269.3,210.4z"/>
							<g class="st13">
								<defs>
									<path id="SVGID_00000005964267787161175160000004213062031641549992_" class="st13" d="M269.3,207.2l149,86
										c1.6,0.9,4.1,1,5.5,0.2l88.9-51.3c1.4-0.8,1.2-2.2-0.4-3.2l-149-86c-1.6-0.9-4.1-1-5.5-0.2L268.9,204
										C267.5,204.8,267.7,206.2,269.3,207.2z"/>
								</defs>
								
									<radialGradient id="SVGID_00000031900219851839026700000010486910302183372982_" cx="403.9177" cy="228.9659" r="155.5936" gradientUnits="userSpaceOnUse">
									<stop  offset="0" style="stop-color:#42E8E0"/>
									<stop  offset="0.1055" style="stop-color:#37B6BF"/>
									<stop  offset="0.2197" style="stop-color:#2C87A1"/>
									<stop  offset="0.338" style="stop-color:#235F87"/>
									<stop  offset="0.4587" style="stop-color:#1C3F72"/>
									<stop  offset="0.5824" style="stop-color:#162561"/>
									<stop  offset="0.7105" style="stop-color:#121355"/>
									<stop  offset="0.8458" style="stop-color:#10084E"/>
									<stop  offset="1" style="stop-color:#0F054C"/>
								</radialGradient>
								
									<use xlink:href="#SVGID_00000005964267787161175160000004213062031641549992_"  style="overflow:visible;opacity:0.5;fill:url(#SVGID_00000031900219851839026700000010486910302183372982_);"/>
								<clipPath id="SVGID_00000076585092682362170960000011680834807766362811_">
									<use xlink:href="#SVGID_00000005964267787161175160000004213062031641549992_"  style="overflow:visible;opacity:0.5;"/>
								</clipPath>
								<g style="clip-path:url(#SVGID_00000076585092682362170960000011680834807766362811_);">
									<g>
										<g>
											<g>
												<g>
													<g>
														<g>
															
																<radialGradient id="SVGID_00000002383246630130531970000012980420923839056022_" cx="-2450.2942" cy="5345.5684" r="97.227" gradientTransform="matrix(-0.7781 0 0 -1.0592 -1538.7906 5972.7949)" gradientUnits="userSpaceOnUse">
																<stop  offset="0" style="stop-color:#C0BFF6"/>
																<stop  offset="1" style="stop-color:#393091"/>
															</radialGradient>
															<path style="fill:url(#SVGID_00000002383246630130531970000012980420923839056022_);" d="M349.7,301.8
																c0-33.1,19.7-59.9,44-59.9c24.3,0,44,26.8,44,59.9c0,33.1-19.7,43-44,43C369.4,344.8,349.7,334.9,349.7,301.8z"/>
														</g>
													</g>
												</g>
											</g>
										</g>
									</g>
								</g>
							</g>
							
								<linearGradient id="SVGID_00000152957548251308541240000004132493398466065546_" gradientUnits="userSpaceOnUse" x1="267.606" y1="223.0583" x2="514.0845" y2="223.0583">
								<stop  offset="0" style="stop-color:#42E8E0"/>
								<stop  offset="0.1055" style="stop-color:#37B6BF"/>
								<stop  offset="0.2197" style="stop-color:#2C87A1"/>
								<stop  offset="0.338" style="stop-color:#235F87"/>
								<stop  offset="0.4587" style="stop-color:#1C3F72"/>
								<stop  offset="0.5824" style="stop-color:#162561"/>
								<stop  offset="0.7105" style="stop-color:#121355"/>
								<stop  offset="0.8458" style="stop-color:#10084E"/>
								<stop  offset="1" style="stop-color:#0F054C"/>
							</linearGradient>
							<path style="opacity:0.8;fill:url(#SVGID_00000152957548251308541240000004132493398466065546_);" d="M421.4,294.4
								c-1.1,0-2.3-0.3-3.3-0.8l-149-86c-1-0.6-1.5-1.3-1.5-2.1c0-0.7,0.4-1.3,1.1-1.7l88.9-51.3c1.5-0.9,4.1-0.8,5.9,0.2l149,86
								c1,0.6,1.5,1.3,1.5,2.1c0,0.7-0.4,1.3-1.1,1.7L424,293.8C423.3,294.2,422.4,294.4,421.4,294.4z M360.2,152.5
								c-0.8,0-1.6,0.2-2.2,0.5l-88.9,51.3c-0.4,0.2-0.8,0.6-0.8,1.1c0,0.5,0.4,1.1,1.2,1.5l149,86c1.5,0.9,3.8,1,5.2,0.2l88.9-51.3
								c0.4-0.2,0.8-0.6,0.8-1.1s-0.4-1.1-1.2-1.5l-149-86C362.3,152.7,361.3,152.5,360.2,152.5z"/>
							<path class="st17" d="M269.3,209.7l149,86c1.6,0.9,4.1,1,5.5,0.2l88.9-51.3c0.5-0.3,0.8-0.7,0.9-1c0.2,0.6-0.1,1.3-0.9,1.7
								l-88.9,51.3c-1.4,0.8-3.9,0.7-5.5-0.2l-149-86c-1.1-0.6-1.5-1.4-1.3-2.1C268.1,208.7,268.6,209.3,269.3,209.7z"/>
						</g>
					</g>
					<g class="st18">
						<defs>
							<polygon id="SVGID_00000043423093208713839420000018220287708345054856_" class="st18" points="532.8,127.7 381.6,40.4 
								362.6,153.4 513.7,240.6 							"/>
						</defs>
						<clipPath id="SVGID_00000063591419458400861740000005186437635732892560_">
							<use xlink:href="#SVGID_00000043423093208713839420000018220287708345054856_"  style="overflow:visible;"/>
						</clipPath>
						<g style="clip-path:url(#SVGID_00000063591419458400861740000005186437635732892560_);">
							<g>
								
									<linearGradient id="SVGID_00000024707914148041619380000006814946552587014077_" gradientUnits="userSpaceOnUse" x1="100.9995" y1="178.8813" x2="346.6433" y2="178.8813" gradientTransform="matrix(-1 0 0 1 709.138 0)">
									<stop  offset="0" style="stop-color:#5761D7"/>
									<stop  offset="0.1779" style="stop-color:#5C66D9"/>
									<stop  offset="0.3876" style="stop-color:#6A73DF"/>
									<stop  offset="0.6134" style="stop-color:#8289E8"/>
									<stop  offset="0.849" style="stop-color:#A3A7F5"/>
									<stop  offset="1" style="stop-color:#BCBEFF"/>
								</linearGradient>
								<path style="fill:url(#SVGID_00000024707914148041619380000006814946552587014077_);" d="M362.5,154.9l8.2,4.3l82.4-47.6
									c1.4-0.8,3.8-0.7,5.4,0.2l142.1,82c1.4-0.8,7.6-3.7,7.6-3.7l-3,4.9c0,0,0,0,0,0c-0.1,0.3-0.4,0.7-0.8,0.9l-86.8,50.1
									c-1.4,0.8-3.8,0.7-5.4-0.2l-145.4-84c-0.7-0.4-1.1-0.8-1.2-1.3l0,0L362.5,154.9z"/>
								
									<linearGradient id="SVGID_00000086658423534114975580000001462612365898955176_" gradientUnits="userSpaceOnUse" x1="183.5366" y1="172.1646" x2="429.3113" y2="172.1646" gradientTransform="matrix(-1 0 0 1 709.138 0)">
									<stop  offset="0" style="stop-color:#C0BFF6"/>
									<stop  offset="0.2938" style="stop-color:#C5C4F7"/>
									<stop  offset="0.6399" style="stop-color:#D3D2F9"/>
									<stop  offset="1" style="stop-color:#E9E9FD"/>
								</linearGradient>
								<path style="fill:url(#SVGID_00000086658423534114975580000001462612365898955176_);" d="M363.8,156.3l149,86
									c1.6,0.9,4.1,1,5.5,0.2l88.9-51.3c1.4-0.8,1.2-2.2-0.4-3.2l-149-86c-1.6-0.9-4.1-1-5.5-0.2l-88.9,51.3
									C362,153.9,362.1,155.4,363.8,156.3z"/>
								<path class="st8" d="M363.8,156.3l149,86c1.6,0.9,4.1,1,5.5,0.2l88.9-51.3c1.4-0.8,1.2-2.2-0.4-3.2l-149-86
									c-1.6-0.9-4.1-1-5.5-0.2l-88.9,51.3C362,153.9,362.1,155.4,363.8,156.3z"/>
								<path class="st22" d="M363.8,156.3l149,86c1.6,0.9,4.1,1,5.5,0.2l88.9-51.3c1.4-0.8,1.2-2.2-0.4-3.2l-149-86
									c-1.6-0.9-4.1-1-5.5-0.2l-88.9,51.3C362,153.9,362.1,155.4,363.8,156.3z"/>
								<path class="st17" d="M606.8,188l-149-86c-1-0.6-2.4-0.9-3.7-0.7c0.9,0.1,1.8,0.3,2.6,0.7l149,86c1.6,0.9,1.8,2.4,0.4,3.2
									l-88.9,51.3c-0.5,0.3-1.1,0.5-1.8,0.5c1.1,0.1,2.2-0.1,2.9-0.5l88.9-51.3C608.6,190.4,608.5,189,606.8,188z"/>
							</g>
						</g>
						<path style="opacity:0.4;clip-path:url(#SVGID_00000063591419458400861740000005186437635732892560_);fill:#24126A;" d="
							M473.6,205l-42.8-24.7c-4.3-2.5-4.3-6.6,0-9.1l42.8-24.7c4.3-2.5,11.4-2.5,15.7,0l42.8,24.7c4.3,2.5,4.3,6.6,0,9.1L489.3,205
							C485,207.5,477.9,207.5,473.6,205z"/>
						<g style="clip-path:url(#SVGID_00000063591419458400861740000005186437635732892560_);">
							<path class="st24" d="M496.2,208.3c-10.7,0-20.7-2.4-28.2-6.7l0,0c-7.7-4.4-11.9-10.3-11.9-16.7c0-6.3,4.2-12.3,11.9-16.7
								c15.6-9,40.9-9,56.5,0c7.7,4.4,11.9,10.4,11.9,16.7c0,6.3-4.2,12.3-11.9,16.7C516.9,205.9,506.9,208.3,496.2,208.3z
								 M496.2,161.9c-10.1,0-20.3,2.2-28,6.7c-7.5,4.3-11.7,10.1-11.7,16.3s4.1,11.9,11.7,16.3l0,0c7.5,4.3,17.4,6.7,28,6.7
								c10.6,0,20.5-2.4,28-6.7c7.5-4.3,11.7-10.1,11.7-16.3s-4.1-11.9-11.7-16.3C516.5,164.1,506.3,161.9,496.2,161.9z"/>
							<g>
								<g>
									
										<linearGradient id="SVGID_00000145044309383147020650000006702925169538226618_" gradientUnits="userSpaceOnUse" x1="-217.2257" y1="171.9428" x2="-144.5997" y2="171.9428" gradientTransform="matrix(-1 0 0 1 315.2906 0)">
										<stop  offset="0" style="stop-color:#5761D7"/>
										<stop  offset="0.1779" style="stop-color:#5C66D9"/>
										<stop  offset="0.3876" style="stop-color:#6A73DF"/>
										<stop  offset="0.6134" style="stop-color:#8289E8"/>
										<stop  offset="0.849" style="stop-color:#A3A7F5"/>
										<stop  offset="1" style="stop-color:#BCBEFF"/>
									</linearGradient>
									<path style="fill:url(#SVGID_00000145044309383147020650000006702925169538226618_);" d="M459.9,171.9v-8.1h2.8
										c1.8-2.5,4.4-4.8,7.9-6.8c14.2-8.2,37.2-8.2,51.4,0c3.5,2,6.1,4.3,7.9,6.8h2.8v8.1l0,0c0,5.4-3.5,10.7-10.6,14.8
										c-14.2,8.2-37.2,8.2-51.4,0C463.4,182.7,459.9,177.3,459.9,171.9z"/>
									<ellipse class="st26" cx="496.2" cy="163.9" rx="36.3" ry="21"/>
								</g>
								<g>
									<path class="st8" d="M462.7,163.6v-11h2.6c1.6-2.3,4-4.4,7.3-6.3c13.1-7.6,34.3-7.6,47.4,0c3.2,1.8,5.6,4,7.3,6.3h2.6v11
										l0,0c0,5-3.3,9.9-9.8,13.7c-13.1,7.6-34.3,7.6-47.4,0C465.9,173.5,462.7,168.5,462.7,163.6z"/>
									<g class="st27">
										<path class="st28" d="M462.7,160.9v-11h2.6c1.6-2.3,4-4.4,7.3-6.3c13.1-7.6,34.3-7.6,47.4,0c3.2,1.8,5.6,4,7.3,6.3h2.6v11
											l0,0c0,5-3.3,9.9-9.8,13.7c-13.1,7.6-34.3,7.6-47.4,0C465.9,170.8,462.7,165.9,462.7,160.9z"/>
									</g>
									<ellipse class="st26" cx="496.2" cy="152.6" rx="33.5" ry="19.4"/>
								</g>
								<g>
									<g class="st27">
										<path class="st29" d="M473.1,166.8c5.8,7.3,13.4,11.3,19.8,13.4c-7.5-0.4-14.7-2.3-20.4-5.6c-6.5-3.8-9.8-8.7-9.8-13.7
											v-3.3C466.1,159.5,469.7,162.4,473.1,166.8z"/>
									</g>
									
										<linearGradient id="SVGID_00000152260376997375997880000001516756851204375730_" gradientUnits="userSpaceOnUse" x1="-217.2257" y1="152.4055" x2="-144.5997" y2="152.4055" gradientTransform="matrix(-1 0 0 1 315.2906 0)">
										<stop  offset="0" style="stop-color:#5761D7"/>
										<stop  offset="0.1779" style="stop-color:#5C66D9"/>
										<stop  offset="0.3876" style="stop-color:#6A73DF"/>
										<stop  offset="0.6134" style="stop-color:#8289E8"/>
										<stop  offset="0.849" style="stop-color:#A3A7F5"/>
										<stop  offset="1" style="stop-color:#BCBEFF"/>
									</linearGradient>
									<path style="fill:url(#SVGID_00000152260376997375997880000001516756851204375730_);" d="M459.9,152.4v-8.1h2.8
										c1.8-2.5,4.4-4.8,7.9-6.8c14.2-8.2,37.2-8.2,51.4,0c3.5,2,6.1,4.3,7.9,6.8h2.8v8.1l0,0c0,5.4-3.5,10.7-10.6,14.8
										c-14.2,8.2-37.2,8.2-51.4,0C463.4,163.1,459.9,157.8,459.9,152.4z"/>
									<ellipse class="st26" cx="496.2" cy="144.3" rx="36.3" ry="21"/>
								</g>
								<g>
									<path class="st8" d="M462.7,143.6v-11h2.6c1.6-2.3,4-4.4,7.3-6.3c13.1-7.6,34.3-7.6,47.4,0c3.2,1.8,5.6,4,7.3,6.3h2.6v11
										l0,0c0,5-3.3,9.9-9.8,13.7c-13.1,7.6-34.3,7.6-47.4,0C465.9,153.5,462.7,148.6,462.7,143.6z"/>
									<g class="st27">
										<path class="st28" d="M462.7,141.1v-11h2.6c1.6-2.3,4-4.4,7.3-6.3c13.1-7.6,34.3-7.6,47.4,0c3.2,1.8,5.6,4,7.3,6.3h2.6v11
											l0,0c0,5-3.3,9.9-9.8,13.7c-13.1,7.6-34.3,7.6-47.4,0C465.9,151,462.7,146.1,462.7,141.1z"/>
									</g>
									<ellipse class="st26" cx="496.2" cy="132.6" rx="33.5" ry="19.4"/>
								</g>
								<g>
									<g class="st27">
										<path class="st29" d="M473.1,145.9c7.2,9.1,17.2,13,24.2,14.6c-9,0.2-18-1.7-24.8-5.6c-6.5-3.8-9.8-8.7-9.8-13.7v-4.5
											C466.1,138.6,469.7,141.5,473.1,145.9z"/>
									</g>
									
										<linearGradient id="SVGID_00000021079010155274476060000000555195261225061554_" gradientUnits="userSpaceOnUse" x1="-217.2257" y1="132.4625" x2="-144.5997" y2="132.4625" gradientTransform="matrix(-1 0 0 1 315.2906 0)">
										<stop  offset="0" style="stop-color:#5761D7"/>
										<stop  offset="0.1779" style="stop-color:#5C66D9"/>
										<stop  offset="0.3876" style="stop-color:#6A73DF"/>
										<stop  offset="0.6134" style="stop-color:#8289E8"/>
										<stop  offset="0.849" style="stop-color:#A3A7F5"/>
										<stop  offset="1" style="stop-color:#BCBEFF"/>
									</linearGradient>
									<path style="fill:url(#SVGID_00000021079010155274476060000000555195261225061554_);" d="M459.9,132.5v-8.1h2.8
										c1.8-2.5,4.4-4.8,7.9-6.8c14.2-8.2,37.2-8.2,51.4,0c3.5,2,6.1,4.3,7.9,6.8h2.8v8.1l0,0c0,5.4-3.5,10.7-10.6,14.8
										c-14.2,8.2-37.2,8.2-51.4,0C463.4,143.2,459.9,137.8,459.9,132.5z"/>
									<ellipse class="st26" cx="496.2" cy="124.4" rx="36.3" ry="21"/>
								</g>
								<g>
									<path class="st8" d="M462.7,123.7v-11h2.6c1.6-2.3,4-4.4,7.3-6.3c13.1-7.6,34.3-7.6,47.4,0c3.2,1.8,5.6,4,7.3,6.3h2.6v11
										l0,0c0,5-3.3,9.9-9.8,13.7c-13.1,7.6-34.3,7.6-47.4,0C465.9,133.6,462.7,128.6,462.7,123.7z"/>
									<g class="st27">
										<path class="st28" d="M462.7,120.6v-11h2.6c1.6-2.3,4-4.4,7.3-6.3c13.1-7.6,34.3-7.6,47.4,0c3.2,1.8,5.6,4,7.3,6.3h2.6v11
											l0,0c0,5-3.3,9.9-9.8,13.7c-13.1,7.6-34.3,7.6-47.4,0C465.9,130.5,462.7,125.6,462.7,120.6z"/>
									</g>
									<ellipse class="st26" cx="496.2" cy="112.7" rx="33.5" ry="19.4"/>
								</g>
								<g>
									
										<linearGradient id="SVGID_00000067237408396431391650000006807514097768941238_" gradientUnits="userSpaceOnUse" x1="-217.2257" y1="112.5196" x2="-144.5997" y2="112.5196" gradientTransform="matrix(-1 0 0 1 315.2906 0)">
										<stop  offset="0" style="stop-color:#5761D7"/>
										<stop  offset="0.1779" style="stop-color:#5C66D9"/>
										<stop  offset="0.3876" style="stop-color:#6A73DF"/>
										<stop  offset="0.6134" style="stop-color:#8289E8"/>
										<stop  offset="0.849" style="stop-color:#A3A7F5"/>
										<stop  offset="1" style="stop-color:#BCBEFF"/>
									</linearGradient>
									<path style="fill:url(#SVGID_00000067237408396431391650000006807514097768941238_);" d="M459.9,112.5v-8.1h2.8
										c1.8-2.5,4.4-4.8,7.9-6.8c14.2-8.2,37.2-8.2,51.4,0c3.5,2,6.1,4.3,7.9,6.8h2.8v8.1l0,0c0,5.4-3.5,10.7-10.6,14.8
										c-14.2,8.2-37.2,8.2-51.4,0C463.4,123.3,459.9,117.9,459.9,112.5z"/>
									<ellipse class="st26" cx="496.2" cy="104.5" rx="36.3" ry="21"/>
									<ellipse class="st26" cx="496.2" cy="104.5" rx="36.3" ry="21"/>
								</g>
								<g>
									<g class="st27">
										<path class="st29" d="M473.1,124.9c7.9,10,19.2,13.7,26.2,15c-9.6,0.5-19.5-1.3-26.8-5.6c-6.5-3.8-9.8-8.7-9.8-13.7v-4.9
											C466.1,117.6,469.7,120.5,473.1,124.9z"/>
									</g>
									
										<linearGradient id="SVGID_00000170998585046538545090000001087845551992475300_" gradientUnits="userSpaceOnUse" x1="-217.2257" y1="112.5196" x2="-144.5997" y2="112.5196" gradientTransform="matrix(-1 0 0 1 315.2906 0)">
										<stop  offset="0" style="stop-color:#5761D7"/>
										<stop  offset="0.1779" style="stop-color:#5C66D9"/>
										<stop  offset="0.3876" style="stop-color:#6A73DF"/>
										<stop  offset="0.6134" style="stop-color:#8289E8"/>
										<stop  offset="0.849" style="stop-color:#A3A7F5"/>
										<stop  offset="1" style="stop-color:#BCBEFF"/>
									</linearGradient>
									<path style="fill:url(#SVGID_00000170998585046538545090000001087845551992475300_);" d="M459.9,112.5v-8.1h2.8
										c1.8-2.5,4.4-4.8,7.9-6.8c14.2-8.2,37.2-8.2,51.4,0c3.5,2,6.1,4.3,7.9,6.8h2.8v8.1l0,0c0,5.4-3.5,10.7-10.6,14.8
										c-14.2,8.2-37.2,8.2-51.4,0C463.4,123.3,459.9,117.9,459.9,112.5z"/>
									<ellipse class="st26" cx="496.2" cy="104.5" rx="36.3" ry="21"/>
									<ellipse class="st26" cx="496.2" cy="104.5" rx="36.3" ry="21"/>
									<path class="st17" d="M470.3,118.7c14.2,8.2,37.2,8.2,51.4,0c8.7-5,12-11.9,10.1-18.4c2.4,6.7-0.9,13.9-9.9,19.1
										c-14.2,8.2-37.2,8.2-51.4,0c-5.5-3.2-8.9-7.1-10.1-11.2C461.8,111.9,465.1,115.6,470.3,118.7z"/>
									<path class="st17" d="M470.3,138.6c14.2,8.2,37.2,8.2,51.4,0c8.7-5,12-11.9,10.1-18.4c2.4,6.7-0.9,13.9-9.9,19.1
										c-14.2,8.2-37.2,8.2-51.4,0c-5.5-3.2-8.9-7.1-10.1-11.2C461.8,131.9,465.1,135.6,470.3,138.6z"/>
									<path class="st17" d="M470.3,158.5c14.2,8.2,37.2,8.2,51.4,0c8.7-5,12-11.9,10.1-18.4c2.4,6.7-0.9,13.9-9.9,19.1
										c-14.2,8.2-37.2,8.2-51.4,0c-5.5-3.2-8.9-7.1-10.1-11.2C461.8,151.8,465.1,155.5,470.3,158.5z"/>
									<path class="st17" d="M470.3,178.5c14.2,8.2,37.2,8.2,51.4,0c8.7-5,12-11.9,10.1-18.4c2.4,6.7-0.9,13.9-9.9,19.1
										c-14.2,8.2-37.2,8.2-51.4,0c-5.5-3.2-8.9-7.1-10.1-11.2C461.8,171.8,465.1,175.5,470.3,178.5z"/>
								</g>
								<defs>
									<filter id="Adobe_OpacityMaskFilter" filterUnits="userSpaceOnUse" x="496.2" y="93.8" width="36.3" height="19.4">
										<feFlood  style="flood-color:white;flood-opacity:1" result="back"/>
										<feBlend  in="SourceGraphic" in2="back" mode="normal"/>
									</filter>
								</defs>
								
									<mask maskUnits="userSpaceOnUse" x="496.2" y="93.8" width="36.3" height="19.4" id="SVGID_00000082362836900820298380000001691966965347534735_">
									<g class="st34">
										<defs>
											
												<filter id="Adobe_OpacityMaskFilter_00000042002020084564549270000007699238112951064752_" filterUnits="userSpaceOnUse" x="496.2" y="93.8" width="36.3" height="19.4">
												<feFlood  style="flood-color:white;flood-opacity:1" result="back"/>
												<feBlend  in="SourceGraphic" in2="back" mode="normal"/>
											</filter>
										</defs>
										
											<mask maskUnits="userSpaceOnUse" x="496.2" y="93.8" width="36.3" height="19.4" id="SVGID_00000082362836900820298380000001691966965347534735_">
											<g style="filter:url(#Adobe_OpacityMaskFilter_00000042002020084564549270000007699238112951064752_);">
											</g>
										</mask>
										
											<linearGradient id="SVGID_00000044142567866442034600000014816859327027218573_" gradientUnits="userSpaceOnUse" x1="-217.2248" y1="103.5446" x2="-180.9127" y2="103.5446" gradientTransform="matrix(-1 0 0 1 315.2906 0)">
											<stop  offset="0" style="stop-color:#000000"/>
											<stop  offset="4.693538e-02" style="stop-color:#2F2F2F"/>
											<stop  offset="9.814870e-02" style="stop-color:#5A5A5A"/>
											<stop  offset="0.155" style="stop-color:#828282"/>
											<stop  offset="0.2161" style="stop-color:#A4A4A4"/>
											<stop  offset="0.2828" style="stop-color:#C0C0C0"/>
											<stop  offset="0.3571" style="stop-color:#D7D7D7"/>
											<stop  offset="0.442" style="stop-color:#E9E9E9"/>
											<stop  offset="0.5443" style="stop-color:#F6F6F6"/>
											<stop  offset="0.6813" style="stop-color:#FDFDFD"/>
											<stop  offset="1" style="stop-color:#FFFFFF"/>
										</linearGradient>
										
											<path style="mask:url(#SVGID_00000082362836900820298380000001691966965347534735_);fill:url(#SVGID_00000044142567866442034600000014816859327027218573_);" d="
											M529.2,113.3h-33V93.8h31.3C533.6,99.8,534.1,107.1,529.2,113.3z"/>
									</g>
								</mask>
								
									<linearGradient id="SVGID_00000070827373487704943220000014550300059807746696_" gradientUnits="userSpaceOnUse" x1="-217.2248" y1="103.5446" x2="-180.9127" y2="103.5446" gradientTransform="matrix(-1 0 0 1 315.2906 0)">
									<stop  offset="0" style="stop-color:#E9E9FD"/>
									<stop  offset="3.739363e-02" style="stop-color:#D3D5F7"/>
									<stop  offset="0.1056" style="stop-color:#B2B6EF"/>
									<stop  offset="0.1817" style="stop-color:#969BE7"/>
									<stop  offset="0.2663" style="stop-color:#7F86E1"/>
									<stop  offset="0.3632" style="stop-color:#6D75DD"/>
									<stop  offset="0.4798" style="stop-color:#606AD9"/>
									<stop  offset="0.6363" style="stop-color:#5963D8"/>
									<stop  offset="1" style="stop-color:#5761D7"/>
								</linearGradient>
								<path style="opacity:0.78;fill:url(#SVGID_00000070827373487704943220000014550300059807746696_);" d="M529.2,113.3h-33
									V93.8h31.3C533.6,99.8,534.1,107.1,529.2,113.3z"/>
								<g>
									
										<linearGradient id="SVGID_00000160902588460717375890000008412067376224801195_" gradientUnits="userSpaceOnUse" x1="-199.5567" y1="102.5028" x2="-162.2687" y2="102.5028" gradientTransform="matrix(-1 0 0 1 315.2906 0)">
										<stop  offset="0" style="stop-color:#5761D7"/>
										<stop  offset="0.1779" style="stop-color:#5C66D9"/>
										<stop  offset="0.3876" style="stop-color:#6A73DF"/>
										<stop  offset="0.6134" style="stop-color:#8289E8"/>
										<stop  offset="0.849" style="stop-color:#A3A7F5"/>
										<stop  offset="1" style="stop-color:#BCBEFF"/>
									</linearGradient>
									<path style="fill:url(#SVGID_00000160902588460717375890000008412067376224801195_);" d="M477.6,102.5v-4.1h1.4
										c0.9-1.3,2.3-2.4,4-3.5c7.3-4.2,19.1-4.2,26.4,0c1.8,1,3.1,2.2,4,3.5h1.4v4.1l0,0c0,2.8-1.8,5.5-5.5,7.6
										c-7.3,4.2-19.1,4.2-26.4,0C479.4,108,477.6,105.3,477.6,102.5z"/>
									<ellipse class="st26" cx="496.2" cy="98.4" rx="18.6" ry="10.8"/>
									
										<linearGradient id="SVGID_00000009563989974486016480000008207459257115365518_" gradientUnits="userSpaceOnUse" x1="-199.5567" y1="98.3663" x2="-162.2686" y2="98.3663" gradientTransform="matrix(-1 0 0 1 315.2906 0)">
										<stop  offset="0" style="stop-color:#C0BFF6"/>
										<stop  offset="0.2938" style="stop-color:#C5C4F7"/>
										<stop  offset="0.6399" style="stop-color:#D3D2F9"/>
										<stop  offset="1" style="stop-color:#E9E9FD"/>
									</linearGradient>
									
										<ellipse style="fill:url(#SVGID_00000009563989974486016480000008207459257115365518_);" cx="496.2" cy="98.4" rx="18.6" ry="10.8"/>
									<path class="st8" d="M487.3,103.5c4.9,2.8,12.9,2.8,17.8,0c1.5-0.9,2.6-1.9,3.2-3.1c1.3-2.5-1.9-4.3-5.3-6.2
										c-4.9-2.8-8.4-3.5-13.3-0.7c-3.4,1.9-6.8,4.4-5.5,6.9C484.7,101.6,485.8,102.6,487.3,103.5z"/>
									
										<linearGradient id="SVGID_00000127038849451213257320000003420780705222794388_" gradientUnits="userSpaceOnUse" x1="-193.4657" y1="95.7766" x2="-168.3596" y2="95.7766" gradientTransform="matrix(-1 0 0 1 315.2906 0)">
										<stop  offset="0" style="stop-color:#BCBEFF"/>
										<stop  offset="0.151" style="stop-color:#A3A7F5"/>
										<stop  offset="0.3866" style="stop-color:#8289E8"/>
										<stop  offset="0.6124" style="stop-color:#6A73DF"/>
										<stop  offset="0.8221" style="stop-color:#5C66D9"/>
										<stop  offset="1" style="stop-color:#5761D7"/>
									</linearGradient>
									<path style="fill:url(#SVGID_00000127038849451213257320000003420780705222794388_);" d="M505.1,97.4
										c-4.9-2.8-12.9-2.8-17.8,0c-1.5,0.9-2.6,1.9-3.2,3.1c-1.3-2.5-0.2-5.2,3.2-7.2c4.9-2.8,12.9-2.8,17.8,0
										c3.4,1.9,4.4,4.7,3.2,7.2C507.7,99.3,506.6,98.3,505.1,97.4z"/>
								</g>
							</g>
							<g>
								<g class="st27">
									<path class="st41" d="M475.8,135.1c2.4,1,4.3,0.7,4.1-0.6c-0.2-1.3-2.3-3.1-4.8-4.1c-2.4-1-4.3-0.7-4.1,0.6
										C471.2,132.3,473.3,134.1,475.8,135.1z"/>
								</g>
								<g class="st27">
									<path class="st41" d="M475.8,155.3c2.4,1,4.3,0.7,4.1-0.6c-0.2-1.3-2.3-3.1-4.8-4.1c-2.4-1-4.3-0.7-4.1,0.6
										C471.2,152.5,473.3,154.3,475.8,155.3z"/>
								</g>
								<g class="st27">
									<path class="st41" d="M475.6,175.6c2.4,1,4.3,0.7,4.1-0.6c-0.2-1.3-2.3-3.1-4.8-4.1c-2.4-1-4.3-0.7-4.1,0.6
										C471,172.9,473.2,174.7,475.6,175.6z"/>
								</g>
								<g class="st27">
									<path class="st41" d="M468.8,130c0.6,0.4,1.3,0.4,1.6,0c0.3-0.4,0.1-1.1-0.5-1.5c-0.6-0.4-1.3-0.4-1.6,0
										C468,128.9,468.2,129.6,468.8,130z"/>
								</g>
								<g class="st27">
									<path class="st41" d="M468.8,150.3c0.6,0.4,1.3,0.4,1.6,0c0.3-0.4,0.1-1.1-0.5-1.5c-0.6-0.4-1.3-0.4-1.6,0
										C468,149.2,468.2,149.9,468.8,150.3z"/>
								</g>
								<g class="st27">
									<path class="st41" d="M468.8,170.6c0.6,0.4,1.3,0.4,1.6,0c0.3-0.4,0.1-1.1-0.5-1.5c-0.6-0.4-1.3-0.4-1.6,0
										C468,169.5,468.2,170.1,468.8,170.6z"/>
								</g>
							</g>
						</g>
					</g>
				</g>
			</g>
		</g>
	</g>
	<g>
		<g>
			<polygon class="st42" points="396.4,73.1 387.9,68.1 388.2,66.3 396.7,71.2 			"/>
			<polygon class="st42" points="400.8,75.6 397.7,73.8 398,71.9 401.1,73.7 			"/>
			<polygon class="st42" points="404.2,77.5 402.1,76.3 402.4,74.5 404.5,75.7 			"/>
			<polygon class="st42" points="391.8,75.1 387.2,72.4 387.5,70.5 392.1,73.2 			"/>
			<polygon class="st42" points="398.8,79.1 393.1,75.9 393.4,74 399.1,77.3 			"/>
			<polygon class="st42" points="402.2,81.1 400.1,79.9 400.4,78 402.5,79.2 			"/>
			<polygon class="st42" points="405.4,83 403.3,81.8 403.7,79.9 405.7,81.1 			"/>
			<polygon class="st24" points="389.8,78.6 386.5,76.7 386.8,74.8 390.1,76.8 			"/>
			<polygon class="st24" points="392.3,80.1 391.1,79.4 391.4,77.5 392.6,78.2 			"/>
			<polygon class="st42" points="395.7,82 393.6,80.8 393.9,78.9 396,80.1 			"/>
			<polygon class="st42" points="398.2,88.1 385.8,81 386.1,79.1 398.5,86.3 			"/>
			<polygon class="st42" points="402.5,90.7 399.5,88.9 399.8,87 402.9,88.8 			"/>
			<polygon class="st42" points="388.4,87.2 385.1,85.3 385.4,83.4 388.7,85.3 			"/>
			<polygon class="st42" points="396.3,91.8 389.7,88 390,86.1 396.6,89.9 			"/>
			<polygon class="st42" points="399.7,93.7 397.6,92.5 397.9,90.6 400,91.8 			"/>
			<polygon class="st42" points="391.2,93.5 384.4,89.5 384.7,87.7 391.5,91.6 			"/>
			<polygon class="st24" points="397.5,97.1 392.5,94.3 392.8,92.4 397.8,95.3 			"/>
			<polygon class="st42" points="402.2,99.8 398.8,97.9 399.1,96 402.5,98 			"/>
			<polygon class="st42" points="386,95.2 383.7,93.8 384,91.9 386.3,93.3 			"/>
			<polygon class="st42" points="390.4,97.7 387.3,95.9 387.6,94 390.7,95.8 			"/>
			<polygon class="st42" points="396.6,101.3 391.7,98.4 392,96.6 396.9,99.4 			"/>
			<polygon class="st42" points="390.1,102.2 382.9,98.1 383.3,96.2 390.4,100.3 			"/>
			<polygon class="st42" points="398,106.8 391.4,103 391.7,101.1 398.3,104.9 			"/>
			<polygon class="st24" points="401.4,108.8 399.3,107.6 399.6,105.7 401.7,106.9 			"/>
			<polygon class="st42" points="404.7,110.6 402.6,109.4 402.9,107.6 405,108.8 			"/>
			<polygon class="st42" points="386.5,104.8 382.2,102.4 382.6,100.5 386.8,103 			"/>
			<polygon class="st24" points="410,80.9 415.9,84.3 416.2,82.4 410.3,79 			"/>
			<polygon class="st42" points="410.5,85.9 415.2,88.6 415.5,86.7 410.8,84 			"/>
			<polygon class="st42" points="411.1,90.9 414.5,92.9 414.8,91 411.4,89.1 			"/>
			<polygon class="st42" points="408.9,94.3 413.8,97.2 414.1,95.3 409.2,92.5 			"/>
			<polygon class="st42" points="409.7,99.5 413.1,101.4 413.4,99.6 410,97.6 			"/>
			<polygon class="st42" points="408.1,103.3 412.4,105.7 412.7,103.8 408.4,101.4 			"/>
			<polygon class="st42" points="409.3,108.7 411.7,110 412,108.1 409.6,106.8 			"/>
			<polygon class="st42" points="406.5,111.7 411,114.3 411.3,112.4 406.8,109.8 			"/>
			<polygon class="st42" points="406,116.1 410.3,118.6 410.6,116.7 406.3,114.2 			"/>
			<polygon class="st42" points="389.6,106.6 387.8,105.6 388.1,103.7 389.9,104.8 			"/>
			<polygon class="st42" points="395,109.8 390.9,107.4 391.2,105.5 395.3,107.9 			"/>
			<polygon class="st42" points="429.5,92.1 421,87.2 421.3,85.3 429.8,90.2 			"/>
			<polygon class="st42" points="433.9,94.6 430.8,92.8 431.1,91 434.2,92.7 			"/>
			<polygon class="st24" points="437.3,96.6 435.2,95.4 435.5,93.5 437.6,94.7 			"/>
			<polygon class="st42" points="424.9,94.1 420.3,91.4 420.6,89.6 425.2,92.3 			"/>
			<polygon class="st42" points="431.9,98.2 426.2,94.9 426.5,93 432.2,96.3 			"/>
			<polygon class="st24" points="435.3,100.1 433.2,98.9 433.5,97.1 435.6,98.3 			"/>
			<polygon class="st42" points="438.5,102 436.4,100.8 436.7,98.9 438.8,100.1 			"/>
			<polygon class="st42" points="422.9,97.7 419.6,95.7 419.9,93.9 423.2,95.8 			"/>
			<polygon class="st42" points="425.4,99.1 424.2,98.4 424.5,96.5 425.7,97.2 			"/>
			<polygon class="st42" points="428.8,101 426.7,99.8 427,98 429.1,99.2 			"/>
			<polygon class="st42" points="431.3,107.2 418.8,100 419.2,98.1 431.6,105.3 			"/>
			<polygon class="st42" points="435.6,109.7 432.6,107.9 432.9,106.1 435.9,107.8 			"/>
			<polygon class="st42" points="421.5,106.2 418.1,104.3 418.5,102.4 421.8,104.4 			"/>
			<polygon class="st42" points="429.4,110.8 422.8,107 423.1,105.1 429.7,108.9 			"/>
			<polygon class="st42" points="432.8,112.7 430.7,111.5 431,109.7 433.1,110.9 			"/>
			<polygon class="st24" points="424.3,112.5 417.4,108.6 417.7,106.7 424.6,110.7 			"/>
			<polygon class="st42" points="430.6,116.2 425.6,113.3 425.9,111.4 430.9,114.3 			"/>
			<polygon class="st42" points="435.3,118.9 431.9,116.9 432.2,115 435.6,117 			"/>
			<polygon class="st42" points="419.1,114.2 416.7,112.8 417,111 419.4,112.3 			"/>
			<polygon class="st42" points="423.4,116.7 420.4,114.9 420.7,113.1 423.7,114.8 			"/>
			<polygon class="st24" points="429.7,120.3 424.7,117.5 425,115.6 430,118.4 			"/>
			<polygon class="st42" points="423.2,121.2 416,117.1 416.3,115.3 423.5,119.4 			"/>
			<polygon class="st42" points="431.1,125.8 424.5,122 424.8,120.1 431.4,124 			"/>
			<polygon class="st42" points="434.5,127.8 432.4,126.6 432.7,124.7 434.8,125.9 			"/>
			<polygon class="st42" points="437.8,129.7 435.7,128.5 436,126.6 438.1,127.8 			"/>
			<polygon class="st42" points="419.6,123.9 415.3,121.4 415.6,119.5 419.9,122 			"/>
			<polygon class="st24" points="443.1,99.9 449,103.3 449.3,101.5 443.4,98.1 			"/>
			<polygon class="st42" points="443.6,104.9 448.3,107.6 448.6,105.8 443.9,103.1 			"/>
			<polygon class="st42" points="444.2,110 447.6,111.9 447.9,110 444.5,108.1 			"/>
			<polygon class="st42" points="442,113.4 446.9,116.2 447.2,114.3 442.3,111.5 			"/>
			<polygon class="st42" points="442.8,118.5 446.2,120.5 446.5,118.6 443.1,116.6 			"/>
			<polygon class="st42" points="441.2,122.3 445.5,124.7 445.8,122.9 441.5,120.4 			"/>
			<polygon class="st42" points="442.4,127.7 444.7,129 445.1,127.1 442.7,125.8 			"/>
			<polygon class="st42" points="439.5,130.7 444,133.3 444.4,131.4 439.9,128.8 			"/>
			<polygon class="st42" points="439.1,135.1 443.3,137.6 443.6,135.7 439.4,133.2 			"/>
			<polygon class="st24" points="422.7,125.7 420.9,124.6 421.2,122.7 423,123.8 			"/>
			<polygon class="st42" points="428.1,128.8 424,126.4 424.3,124.5 428.4,126.9 			"/>
			<polygon class="st42" points="390.1,111.6 381.5,106.7 381.8,104.8 390.4,109.7 			"/>
			<polygon class="st42" points="394.4,114.1 391.4,112.4 391.7,110.5 394.7,112.3 			"/>
			<polygon class="st42" points="397.8,116.1 395.7,114.9 396.1,113 398.1,114.2 			"/>
			<polygon class="st42" points="385.5,113.6 380.8,111 381.1,109.1 385.8,111.8 			"/>
			<polygon class="st42" points="392.5,117.7 386.8,114.4 387.1,112.5 392.8,115.8 			"/>
			<polygon class="st42" points="395.9,119.6 393.8,118.4 394.1,116.6 396.2,117.8 			"/>
			<polygon class="st42" points="399.1,121.5 397,120.3 397.3,118.4 399.4,119.6 			"/>
			<polygon class="st42" points="383.5,117.2 380.1,115.2 380.4,113.4 383.8,115.3 			"/>
			<polygon class="st42" points="385.9,118.6 384.8,117.9 385.1,116.1 386.3,116.7 			"/>
			<polygon class="st42" points="389.3,120.6 387.2,119.4 387.6,117.5 389.6,118.7 			"/>
			<polygon class="st42" points="391.8,126.7 379.4,119.5 379.7,117.6 392.1,124.8 			"/>
			<polygon class="st42" points="396.2,129.2 393.1,127.4 393.4,125.6 396.5,127.3 			"/>
			<polygon class="st42" points="382.1,125.7 378.7,123.8 379,121.9 382.4,123.9 			"/>
			<polygon class="st42" points="390,130.3 383.4,126.5 383.7,124.6 390.3,128.4 			"/>
			<polygon class="st42" points="393.4,132.3 391.3,131.1 391.6,129.2 393.7,130.4 			"/>
			<polygon class="st42" points="384.9,132.1 378,128.1 378.3,126.2 385.2,130.2 			"/>
			<polygon class="st42" points="391.2,135.7 386.2,132.8 386.5,130.9 391.5,133.8 			"/>
			<polygon class="st42" points="395.8,138.4 392.5,136.4 392.8,134.6 396.1,136.5 			"/>
			<polygon class="st42" points="379.6,133.7 377.3,132.4 377.6,130.5 379.9,131.8 			"/>
			<polygon class="st42" points="384,136.2 380.9,134.5 381.2,132.6 384.3,134.4 			"/>
			<polygon class="st42" points="390.3,139.8 385.3,137 385.6,135.1 390.6,138 			"/>
			<polygon class="st42" points="383.7,140.8 376.6,136.6 376.9,134.8 384,138.9 			"/>
			<polygon class="st42" points="391.7,145.4 385,141.5 385.3,139.6 392,143.5 			"/>
			<polygon class="st42" points="395.1,147.3 393,146.1 393.3,144.2 395.4,145.4 			"/>
			<polygon class="st42" points="398.3,149.2 396.3,148 396.6,146.1 398.6,147.3 			"/>
			<polygon class="st42" points="380.2,143.4 375.9,140.9 376.2,139 380.5,141.5 			"/>
			<polygon class="st42" points="403.6,119.4 409.5,122.9 409.9,121 403.9,117.6 			"/>
			<polygon class="st42" points="404.2,124.5 408.8,127.1 409.2,125.3 404.5,122.6 			"/>
			<polygon class="st42" points="404.8,129.5 408.1,131.4 408.4,129.5 405.1,127.6 			"/>
			<polygon class="st42" points="402.5,132.9 407.4,135.7 407.7,133.8 402.9,131 			"/>
			<polygon class="st42" points="403.4,138 406.7,140 407,138.1 403.7,136.2 			"/>
			<polygon class="st42" points="401.8,141.8 406,144.3 406.3,142.4 402.1,139.9 			"/>
			<polygon class="st42" points="403,147.2 405.3,148.5 405.6,146.7 403.3,145.3 			"/>
			<polygon class="st42" points="400.1,150.2 404.6,152.8 404.9,150.9 400.4,148.3 			"/>
			<polygon class="st42" points="399.7,154.6 403.9,157.1 404.2,155.2 400,152.8 			"/>
			<polygon class="st42" points="383.3,145.2 381.5,144.1 381.8,142.3 383.6,143.3 			"/>
			<polygon class="st42" points="388.7,148.3 384.6,145.9 384.9,144.1 389,146.4 			"/>
			<polygon class="st42" points="423.1,130.6 414.6,125.7 414.9,123.8 423.5,128.8 			"/>
			<polygon class="st42" points="427.5,133.2 424.5,131.4 424.8,129.5 427.8,131.3 			"/>
			<polygon class="st42" points="430.9,135.1 428.8,133.9 429.1,132 431.2,133.2 			"/>
			<polygon class="st42" points="418.6,132.7 413.9,130 414.2,128.1 418.9,130.8 			"/>
			<polygon class="st42" points="425.6,136.7 419.9,133.4 420.2,131.6 425.9,134.8 			"/>
			<polygon class="st42" points="429,138.7 426.9,137.5 427.2,135.6 429.3,136.8 			"/>
			<polygon class="st42" points="432.2,140.5 430.1,139.3 430.4,137.5 432.5,138.7 			"/>
			<polygon class="st42" points="416.6,136.2 413.2,134.3 413.5,132.4 416.9,134.3 			"/>
			<polygon class="st42" points="419,137.6 417.9,137 418.2,135.1 419.3,135.8 			"/>
			<polygon class="st42" points="422.4,139.6 420.3,138.4 420.6,136.5 422.7,137.7 			"/>
			<polygon class="st42" points="424.9,145.7 412.5,138.5 412.8,136.7 425.2,143.8 			"/>
			<polygon class="st42" points="429.3,148.2 426.2,146.5 426.5,144.6 429.6,146.4 			"/>
			<polygon class="st42" points="415.2,144.8 411.8,142.8 412.1,141 415.5,142.9 			"/>
			<polygon class="st42" points="423.1,149.3 416.5,145.5 416.8,143.7 423.4,147.5 			"/>
			<polygon class="st42" points="426.4,151.3 424.4,150.1 424.7,148.2 426.8,149.4 			"/>
			<polygon class="st42" points="418,151.1 411.1,147.1 411.4,145.2 418.3,149.2 			"/>
			<polygon class="st42" points="424.3,154.7 419.3,151.8 419.6,150 424.6,152.8 			"/>
			<polygon class="st42" points="428.9,157.4 425.6,155.5 425.9,153.6 429.2,155.5 			"/>
			<polygon class="st42" points="412.7,152.7 410.4,151.4 410.7,149.5 413,150.9 			"/>
			<polygon class="st42" points="417.1,155.3 414,153.5 414.3,151.6 417.4,153.4 			"/>
			<polygon class="st42" points="423.3,158.9 418.4,156 418.7,154.1 423.7,157 			"/>
			<polygon class="st42" points="416.8,159.8 409.7,155.7 410,153.8 417.1,157.9 			"/>
			<polygon class="st42" points="424.8,164.4 418.1,160.5 418.4,158.7 425.1,162.5 			"/>
			<polygon class="st42" points="428.2,166.3 426.1,165.1 426.4,163.3 428.5,164.5 			"/>
			<polygon class="st42" points="431.4,168.2 429.3,167 429.6,165.1 431.7,166.3 			"/>
			<polygon class="st42" points="413.3,162.4 409,159.9 409.3,158.1 413.6,160.5 			"/>
			<polygon class="st42" points="436.7,138.5 442.6,141.9 442.9,140 437,136.6 			"/>
			<polygon class="st42" points="437.3,143.5 441.9,146.2 442.2,144.3 437.6,141.6 			"/>
			<polygon class="st42" points="437.9,148.5 441.2,150.4 441.5,148.6 438.2,146.6 			"/>
			<polygon class="st42" points="435.6,151.9 440.5,154.7 440.8,152.9 435.9,150 			"/>
			<polygon class="st42" points="436.5,157.1 439.8,159 440.1,157.1 436.8,155.2 			"/>
			<polygon class="st42" points="434.8,160.8 439.1,163.3 439.4,161.4 435.2,159 			"/>
			<polygon class="st42" points="436.1,166.2 438.4,167.6 438.7,165.7 436.4,164.4 			"/>
			<polygon class="st42" points="433.2,169.2 437.7,171.8 438,170 433.5,167.4 			"/>
			<polygon class="st42" points="432.7,173.7 437,176.1 437.3,174.3 433,171.8 			"/>
			<polygon class="st42" points="416.4,164.2 414.6,163.2 414.9,161.3 416.7,162.3 			"/>
			<polygon class="st42" points="421.8,167.3 417.7,165 418,163.1 422.1,165.4 			"/>
		</g>
		<g>
			<polygon class="st42" points="467,112.5 458.4,107.6 458.7,105.7 467.3,110.6 			"/>
			<polygon class="st42" points="471.3,115 468.3,113.3 468.6,111.4 471.6,113.2 			"/>
			<polygon class="st42" points="474.7,117 472.6,115.8 472.9,113.9 475,115.1 			"/>
			<polygon class="st42" points="462.4,114.6 457.7,111.9 458,110 462.7,112.7 			"/>
			<polygon class="st42" points="469.4,118.6 463.7,115.3 464,113.4 469.7,116.7 			"/>
			<polygon class="st42" points="472.8,120.6 470.7,119.3 471,117.5 473.1,118.7 			"/>
			<polygon class="st42" points="476,122.4 473.9,121.2 474.2,119.3 476.3,120.5 			"/>
			<polygon class="st24" points="460.4,118.1 457,116.1 457.3,114.3 460.7,116.2 			"/>
			<polygon class="st24" points="462.8,119.5 461.7,118.8 462,117 463.2,117.6 			"/>
			<polygon class="st42" points="466.2,121.5 464.1,120.3 464.5,118.4 466.5,119.6 			"/>
			<polygon class="st42" points="468.7,127.6 456.3,120.4 456.6,118.6 469,125.7 			"/>
			<polygon class="st42" points="473.1,130.1 470,128.3 470.3,126.5 473.4,128.2 			"/>
			<polygon class="st42" points="459,126.7 455.6,124.7 455.9,122.8 459.3,124.8 			"/>
			<polygon class="st42" points="466.9,131.2 460.3,127.4 460.6,125.5 467.2,129.3 			"/>
			<polygon class="st42" points="470.3,133.2 468.2,132 468.5,130.1 470.6,131.3 			"/>
			<polygon class="st42" points="461.8,133 454.9,129 455.2,127.1 462.1,131.1 			"/>
			<polygon class="st24" points="468.1,136.6 463.1,133.7 463.4,131.8 468.4,134.7 			"/>
			<polygon class="st42" points="472.7,139.3 469.4,137.3 469.7,135.5 473,137.4 			"/>
			<polygon class="st42" points="456.5,134.6 454.2,133.3 454.5,131.4 456.8,132.7 			"/>
			<polygon class="st42" points="460.9,137.1 457.8,135.4 458.1,133.5 461.2,135.3 			"/>
			<polygon class="st42" points="467.2,140.7 462.2,137.9 462.5,136 467.5,138.9 			"/>
			<polygon class="st42" points="460.6,141.7 453.5,137.5 453.8,135.7 460.9,139.8 			"/>
			<polygon class="st42" points="468.6,146.3 461.9,142.4 462.2,140.5 468.9,144.4 			"/>
			<polygon class="st24" points="472,148.2 469.9,147 470.2,145.1 472.3,146.3 			"/>
			<polygon class="st42" points="475.2,150.1 473.2,148.9 473.5,147 475.5,148.2 			"/>
			<polygon class="st42" points="457.1,144.3 452.8,141.8 453.1,140 457.4,142.4 			"/>
			<polygon class="st24" points="480.5,120.4 486.4,123.8 486.8,121.9 480.8,118.5 			"/>
			<polygon class="st42" points="481.1,125.4 485.7,128 486.1,126.2 481.4,123.5 			"/>
			<polygon class="st42" points="481.7,130.4 485,132.3 485.3,130.5 482,128.5 			"/>
			<polygon class="st42" points="479.4,133.8 484.3,136.6 484.6,134.7 479.8,131.9 			"/>
			<polygon class="st42" points="480.3,138.9 483.6,140.9 483.9,139 480.6,137.1 			"/>
			<polygon class="st42" points="478.7,142.7 482.9,145.2 483.2,143.3 479,140.8 			"/>
			<polygon class="st42" points="479.9,148.1 482.2,149.4 482.5,147.6 480.2,146.2 			"/>
			<polygon class="st42" points="477,151.1 481.5,153.7 481.8,151.9 477.3,149.3 			"/>
			<polygon class="st42" points="476.6,155.5 480.8,158 481.1,156.1 476.9,153.7 			"/>
			<polygon class="st42" points="460.2,146.1 458.4,145 458.7,143.2 460.5,144.2 			"/>
			<polygon class="st42" points="465.6,149.2 461.5,146.8 461.8,145 465.9,147.3 			"/>
			<polygon class="st42" points="500,131.5 491.5,126.6 491.8,124.7 500.4,129.7 			"/>
			<polygon class="st42" points="504.4,134.1 501.4,132.3 501.7,130.4 504.7,132.2 			"/>
			<polygon class="st24" points="507.8,136 505.7,134.8 506,132.9 508.1,134.2 			"/>
			<polygon class="st42" points="495.5,133.6 490.8,130.9 491.1,129 495.8,131.7 			"/>
			<polygon class="st42" points="502.5,137.6 496.8,134.3 497.1,132.5 502.8,135.7 			"/>
			<polygon class="st24" points="505.9,139.6 503.8,138.4 504.1,136.5 506.2,137.7 			"/>
			<polygon class="st42" points="509.1,141.4 507,140.2 507.3,138.4 509.4,139.6 			"/>
			<polygon class="st42" points="493.5,137.1 490.1,135.2 490.4,133.3 493.8,135.2 			"/>
			<polygon class="st42" points="495.9,138.5 494.8,137.9 495.1,136 496.2,136.7 			"/>
			<polygon class="st42" points="499.3,140.5 497.2,139.3 497.5,137.4 499.6,138.6 			"/>
			<polygon class="st42" points="501.8,146.6 489.4,139.5 489.7,137.6 502.1,144.8 			"/>
			<polygon class="st42" points="506.2,149.2 503.1,147.4 503.4,145.5 506.5,147.3 			"/>
			<polygon class="st42" points="492.1,145.7 488.7,143.7 489,141.9 492.4,143.8 			"/>
			<polygon class="st42" points="500,150.2 493.4,146.4 493.7,144.6 500.3,148.4 			"/>
			<polygon class="st42" points="503.3,152.2 501.3,151 501.6,149.1 503.7,150.3 			"/>
			<polygon class="st24" points="494.9,152 488,148 488.3,146.1 495.2,150.1 			"/>
			<polygon class="st42" points="501.2,155.6 496.2,152.7 496.5,150.9 501.5,153.7 			"/>
			<polygon class="st42" points="505.8,158.3 502.5,156.4 502.8,154.5 506.1,156.4 			"/>
			<polygon class="st42" points="489.6,153.6 487.3,152.3 487.6,150.4 489.9,151.8 			"/>
			<polygon class="st42" points="494,156.2 490.9,154.4 491.2,152.5 494.3,154.3 			"/>
			<polygon class="st24" points="500.2,159.8 495.3,156.9 495.6,155 500.6,157.9 			"/>
			<polygon class="st42" points="493.7,160.7 486.6,156.6 486.9,154.7 494,158.8 			"/>
			<polygon class="st42" points="501.7,165.3 495,161.4 495.3,159.6 502,163.4 			"/>
			<polygon class="st42" points="505.1,167.2 503,166 503.3,164.2 505.4,165.4 			"/>
			<polygon class="st42" points="508.3,169.1 506.2,167.9 506.5,166 508.6,167.3 			"/>
			<polygon class="st42" points="490.2,163.3 485.9,160.9 486.2,159 490.5,161.4 			"/>
			<polygon class="st24" points="513.6,139.4 519.5,142.8 519.8,140.9 513.9,137.5 			"/>
			<polygon class="st42" points="514.2,144.4 518.8,147.1 519.1,145.2 514.5,142.5 			"/>
			<polygon class="st42" points="514.8,149.4 518.1,151.4 518.4,149.5 515.1,147.5 			"/>
			<polygon class="st42" points="512.5,152.8 517.4,155.6 517.7,153.8 512.8,150.9 			"/>
			<polygon class="st42" points="513.4,158 516.7,159.9 517,158 513.7,156.1 			"/>
			<polygon class="st42" points="511.7,161.7 516,164.2 516.3,162.3 512.1,159.9 			"/>
			<polygon class="st42" points="513,167.1 515.3,168.5 515.6,166.6 513.3,165.3 			"/>
			<polygon class="st42" points="510.1,170.2 514.6,172.8 514.9,170.9 510.4,168.3 			"/>
			<polygon class="st42" points="509.6,174.6 513.9,177 514.2,175.2 509.9,172.7 			"/>
			<polygon class="st24" points="493.3,165.1 491.5,164.1 491.8,162.2 493.6,163.2 			"/>
			<polygon class="st42" points="498.7,168.2 494.6,165.9 494.9,164 499,166.4 			"/>
			<polygon class="st42" points="460.6,151.1 452.1,146.1 452.4,144.3 460.9,149.2 			"/>
			<polygon class="st42" points="465,153.6 461.9,151.8 462.2,149.9 465.3,151.7 			"/>
			<polygon class="st42" points="468.4,155.5 466.3,154.3 466.6,152.5 468.7,153.7 			"/>
			<polygon class="st42" points="456,153.1 451.4,150.4 451.7,148.5 456.3,151.2 			"/>
			<polygon class="st42" points="463,157.1 457.3,153.8 457.7,152 463.3,155.3 			"/>
			<polygon class="st42" points="466.4,159.1 464.3,157.9 464.6,156 466.7,157.2 			"/>
			<polygon class="st42" points="469.7,161 467.6,159.8 467.9,157.9 470,159.1 			"/>
			<polygon class="st42" points="454.1,156.6 450.7,154.7 451,152.8 454.4,154.8 			"/>
			<polygon class="st42" points="456.5,158.1 455.4,157.4 455.7,155.5 456.8,156.2 			"/>
			<polygon class="st42" points="459.9,160 457.8,158.8 458.1,156.9 460.2,158.1 			"/>
			<polygon class="st42" points="462.4,166.1 450,159 450.3,157.1 462.7,164.3 			"/>
			<polygon class="st42" points="466.8,168.7 463.7,166.9 464,165 467.1,166.8 			"/>
			<polygon class="st42" points="452.6,165.2 449.3,163.3 449.6,161.4 453,163.3 			"/>
			<polygon class="st42" points="460.5,169.8 453.9,165.9 454.3,164.1 460.8,167.9 			"/>
			<polygon class="st42" points="463.9,171.7 461.8,170.5 462.1,168.6 464.2,169.8 			"/>
			<polygon class="st42" points="455.5,171.5 448.6,167.5 448.9,165.7 455.8,169.6 			"/>
			<polygon class="st42" points="461.7,175.1 456.8,172.3 457.1,170.4 462,173.3 			"/>
			<polygon class="st42" points="466.4,177.8 463,175.9 463.3,174 466.7,176 			"/>
			<polygon class="st42" points="450.2,173.2 447.9,171.8 448.2,169.9 450.5,171.3 			"/>
			<polygon class="st42" points="454.6,175.7 451.5,173.9 451.8,172 454.9,173.8 			"/>
			<polygon class="st42" points="460.8,179.3 455.9,176.4 456.2,174.6 461.1,177.4 			"/>
			<polygon class="st42" points="454.3,180.2 447.2,176.1 447.5,174.2 454.6,178.3 			"/>
			<polygon class="st42" points="462.3,184.8 455.6,181 455.9,179.1 462.6,182.9 			"/>
			<polygon class="st42" points="465.6,186.8 463.6,185.6 463.9,183.7 466,184.9 			"/>
			<polygon class="st42" points="468.9,188.6 466.8,187.4 467.1,185.6 469.2,186.8 			"/>
			<polygon class="st42" points="450.7,182.8 446.5,180.4 446.8,178.5 451,181 			"/>
			<polygon class="st42" points="474.2,158.9 480.1,162.3 480.4,160.4 474.5,157 			"/>
			<polygon class="st42" points="474.8,163.9 479.4,166.6 479.7,164.7 475.1,162 			"/>
			<polygon class="st42" points="475.3,168.9 478.7,170.9 479,169 475.6,167.1 			"/>
			<polygon class="st42" points="473.1,172.3 478,175.2 478.3,173.3 473.4,170.5 			"/>
			<polygon class="st42" points="473.9,177.5 477.3,179.4 477.6,177.6 474.2,175.6 			"/>
			<polygon class="st42" points="472.3,181.2 476.6,183.7 476.9,181.8 472.6,179.4 			"/>
			<polygon class="st42" points="473.6,186.6 475.9,188 476.2,186.1 473.9,184.8 			"/>
			<polygon class="st42" points="470.7,189.7 475.2,192.3 475.5,190.4 471,187.8 			"/>
			<polygon class="st42" points="470.2,194.1 474.5,196.6 474.8,194.7 470.5,192.2 			"/>
			<polygon class="st42" points="453.8,184.6 452,183.6 452.3,181.7 454.2,182.8 			"/>
			<polygon class="st42" points="459.2,187.7 455.1,185.4 455.5,183.5 459.5,185.9 			"/>
			<polygon class="st42" points="493.7,170.1 485.2,165.2 485.5,163.3 494,168.2 			"/>
			<polygon class="st42" points="498.1,172.6 495,170.8 495.3,169 498.4,170.7 			"/>
			<polygon class="st42" points="501.5,174.6 499.4,173.4 499.7,171.5 501.8,172.7 			"/>
			<polygon class="st42" points="489.1,172.1 484.5,169.4 484.8,167.6 489.4,170.3 			"/>
			<polygon class="st42" points="496.1,176.2 490.4,172.9 490.7,171 496.4,174.3 			"/>
			<polygon class="st42" points="499.5,178.1 497.4,176.9 497.7,175 499.8,176.3 			"/>
			<polygon class="st42" points="502.7,180 500.6,178.8 501,176.9 503,178.1 			"/>
			<polygon class="st42" points="487.1,175.7 483.8,173.7 484.1,171.8 487.4,173.8 			"/>
			<polygon class="st42" points="489.6,177.1 488.4,176.4 488.7,174.5 489.9,175.2 			"/>
			<polygon class="st42" points="493,179 490.9,177.8 491.2,176 493.3,177.2 			"/>
			<polygon class="st42" points="495.5,185.2 483.1,178 483.4,176.1 495.8,183.3 			"/>
			<polygon class="st42" points="499.9,187.7 496.8,185.9 497.1,184 500.2,185.8 			"/>
			<polygon class="st42" points="485.7,184.2 482.4,182.3 482.7,180.4 486,182.3 			"/>
			<polygon class="st42" points="493.6,188.8 487,185 487.3,183.1 493.9,186.9 			"/>
			<polygon class="st42" points="497,190.7 494.9,189.5 495.2,187.7 497.3,188.9 			"/>
			<polygon class="st42" points="488.5,190.5 481.7,186.6 482,184.7 488.8,188.7 			"/>
			<polygon class="st42" points="494.8,194.2 489.8,191.3 490.2,189.4 495.1,192.3 			"/>
			<polygon class="st42" points="499.5,196.9 496.1,194.9 496.4,193 499.8,195 			"/>
			<polygon class="st42" points="483.3,192.2 481,190.8 481.3,189 483.6,190.3 			"/>
			<polygon class="st42" points="487.7,194.7 484.6,192.9 484.9,191.1 488,192.8 			"/>
			<polygon class="st42" points="493.9,198.3 489,195.5 489.3,193.6 494.2,196.4 			"/>
			<polygon class="st42" points="487.4,199.2 480.3,195.1 480.6,193.2 487.7,197.4 			"/>
			<polygon class="st42" points="495.3,203.8 488.7,200 489,198.1 495.6,202 			"/>
			<polygon class="st42" points="498.7,205.8 496.6,204.6 497,202.7 499,203.9 			"/>
			<polygon class="st42" points="502,207.7 499.9,206.5 500.2,204.6 502.3,205.8 			"/>
			<polygon class="st42" points="483.8,201.9 479.5,199.4 479.9,197.5 484.1,200 			"/>
			<polygon class="st42" points="507.3,177.9 513.2,181.3 513.5,179.5 507.6,176.1 			"/>
			<polygon class="st42" points="507.8,182.9 512.5,185.6 512.8,183.7 508.1,181.1 			"/>
			<polygon class="st42" points="508.4,188 511.8,189.9 512.1,188 508.7,186.1 			"/>
			<polygon class="st42" points="506.2,191.4 511.1,194.2 511.4,192.3 506.5,189.5 			"/>
			<polygon class="st42" points="507,196.5 510.4,198.5 510.7,196.6 507.3,194.6 			"/>
			<polygon class="st42" points="505.4,200.3 509.7,202.7 510,200.9 505.7,198.4 			"/>
			<polygon class="st42" points="506.6,205.7 509,207 509.3,205.1 507,203.8 			"/>
			<polygon class="st42" points="503.8,208.7 508.3,211.3 508.6,209.4 504.1,206.8 			"/>
			<polygon class="st42" points="503.3,213.1 507.6,215.6 507.9,213.7 503.6,211.2 			"/>
			<polygon class="st42" points="486.9,203.7 485.1,202.6 485.4,200.7 487.2,201.8 			"/>
			<polygon class="st42" points="492.3,206.8 488.2,204.4 488.5,202.5 492.6,204.9 			"/>
		</g>
	</g>
	<g>
		<g>
			<path class="st24" d="M419.9,247.4c-10.7,0-20.7-2.4-28.2-6.7l0,0c-7.7-4.4-11.9-10.4-11.9-16.7c0-6.3,4.2-12.3,11.9-16.7
				c15.6-9,40.9-9,56.5,0c7.7,4.4,11.9,10.4,11.9,16.7c0,6.3-4.2,12.3-11.9,16.7C440.6,245,430.6,247.4,419.9,247.4z M419.9,201
				c-10.1,0-20.3,2.2-28,6.7c-7.5,4.3-11.7,10.1-11.7,16.3s4.1,11.9,11.7,16.3l0,0c7.5,4.3,17.4,6.7,28,6.7c10.6,0,20.5-2.4,28-6.7
				c7.5-4.3,11.7-10.1,11.7-16.3c0-6.2-4.1-11.9-11.7-16.3C440.2,203.2,430.1,201,419.9,201z"/>
			<g class="st43">
				<ellipse class="st8" cx="419.9" cy="224" rx="29.7" ry="17.1"/>
			</g>
			<g>
				<g>
					
						<linearGradient id="SVGID_00000054970811493576935650000006063143773956842921_" gradientUnits="userSpaceOnUse" x1="-140.945" y1="211.0686" x2="-68.319" y2="211.0686" gradientTransform="matrix(-1 0 0 1 315.2906 0)">
						<stop  offset="0" style="stop-color:#5761D7"/>
						<stop  offset="0.1779" style="stop-color:#5C66D9"/>
						<stop  offset="0.3876" style="stop-color:#6A73DF"/>
						<stop  offset="0.6134" style="stop-color:#8289E8"/>
						<stop  offset="0.849" style="stop-color:#A3A7F5"/>
						<stop  offset="1" style="stop-color:#BCBEFF"/>
					</linearGradient>
					<path style="fill:url(#SVGID_00000054970811493576935650000006063143773956842921_);" d="M383.6,211.1V203h2.8
						c1.8-2.5,4.4-4.8,7.9-6.8c14.2-8.2,37.2-8.2,51.4,0c3.5,2,6.1,4.3,7.9,6.8h2.8v8.1l0,0c0,5.4-3.5,10.7-10.6,14.8
						c-14.2,8.2-37.2,8.2-51.4,0C387.2,221.8,383.6,216.4,383.6,211.1z"/>
					<ellipse class="st26" cx="419.9" cy="203" rx="36.3" ry="21"/>
				</g>
				<g>
					<path class="st8" d="M386.4,202.7v-11h2.6c1.6-2.3,4-4.4,7.3-6.3c13.1-7.6,34.3-7.6,47.4,0c3.2,1.8,5.6,4,7.3,6.3h2.6v11l0,0
						c0,5-3.3,9.9-9.8,13.7c-13.1,7.6-34.3,7.6-47.4,0C389.7,212.6,386.4,207.7,386.4,202.7z"/>
					<g class="st27">
						<path class="st28" d="M386.4,200.1v-11h2.6c1.6-2.3,4-4.4,7.3-6.3c13.1-7.6,34.3-7.6,47.4,0c3.2,1.8,5.6,4,7.3,6.3h2.6v11l0,0
							c0,5-3.3,9.9-9.8,13.7c-13.1,7.6-34.3,7.6-47.4,0C389.7,210,386.4,205,386.4,200.1z"/>
					</g>
					<ellipse class="st26" cx="419.9" cy="191.7" rx="33.5" ry="19.4"/>
				</g>
				<g>
					<g class="st27">
						<path class="st29" d="M396.8,206c5.8,7.3,13.4,11.3,19.8,13.4c-7.5-0.4-14.7-2.3-20.4-5.6c-6.5-3.8-9.8-8.7-9.8-13.7v-3.3
							C389.8,198.7,393.4,201.6,396.8,206z"/>
					</g>
					
						<linearGradient id="SVGID_00000061470306112668650370000010329455928499716998_" gradientUnits="userSpaceOnUse" x1="-140.945" y1="191.5313" x2="-68.319" y2="191.5313" gradientTransform="matrix(-1 0 0 1 315.2906 0)">
						<stop  offset="0" style="stop-color:#5761D7"/>
						<stop  offset="0.1779" style="stop-color:#5C66D9"/>
						<stop  offset="0.3876" style="stop-color:#6A73DF"/>
						<stop  offset="0.6134" style="stop-color:#8289E8"/>
						<stop  offset="0.849" style="stop-color:#A3A7F5"/>
						<stop  offset="1" style="stop-color:#BCBEFF"/>
					</linearGradient>
					<path style="fill:url(#SVGID_00000061470306112668650370000010329455928499716998_);" d="M383.6,191.5v-8.1h2.8
						c1.8-2.5,4.4-4.8,7.9-6.8c14.2-8.2,37.2-8.2,51.4,0c3.5,2,6.1,4.3,7.9,6.8h2.8v8.1l0,0c0,5.4-3.5,10.7-10.6,14.8
						c-14.2,8.2-37.2,8.2-51.4,0C387.2,202.3,383.6,196.9,383.6,191.5z"/>
					<ellipse class="st26" cx="419.9" cy="183.5" rx="36.3" ry="21"/>
				</g>
				<g>
					<path class="st8" d="M386.4,182.8v-11h2.6c1.6-2.3,4-4.4,7.3-6.3c13.1-7.6,34.3-7.6,47.4,0c3.2,1.8,5.6,4,7.3,6.3h2.6v11l0,0
						c0,5-3.3,9.9-9.8,13.7c-13.1,7.6-34.3,7.6-47.4,0C389.7,192.7,386.4,187.7,386.4,182.8z"/>
					<g class="st27">
						<path class="st28" d="M386.4,180.2v-11h2.6c1.6-2.3,4-4.4,7.3-6.3c13.1-7.6,34.3-7.6,47.4,0c3.2,1.8,5.6,4,7.3,6.3h2.6v11l0,0
							c0,5-3.3,9.9-9.8,13.7c-13.1,7.6-34.3,7.6-47.4,0C389.7,190.2,386.4,185.2,386.4,180.2z"/>
					</g>
					<ellipse class="st26" cx="419.9" cy="171.8" rx="33.5" ry="19.4"/>
				</g>
				<g>
					<g class="st27">
						<path class="st29" d="M396.8,185c7.2,9.1,17.2,13,24.2,14.6c-9,0.2-18-1.7-24.8-5.6c-6.5-3.8-9.8-8.7-9.8-13.7v-4.5
							C389.8,177.7,393.4,180.6,396.8,185z"/>
					</g>
					
						<linearGradient id="SVGID_00000101080062011265076500000018354074920619436729_" gradientUnits="userSpaceOnUse" x1="-140.945" y1="171.5883" x2="-68.319" y2="171.5883" gradientTransform="matrix(-1 0 0 1 315.2906 0)">
						<stop  offset="0" style="stop-color:#5761D7"/>
						<stop  offset="0.1779" style="stop-color:#5C66D9"/>
						<stop  offset="0.3876" style="stop-color:#6A73DF"/>
						<stop  offset="0.6134" style="stop-color:#8289E8"/>
						<stop  offset="0.849" style="stop-color:#A3A7F5"/>
						<stop  offset="1" style="stop-color:#BCBEFF"/>
					</linearGradient>
					<path style="fill:url(#SVGID_00000101080062011265076500000018354074920619436729_);" d="M383.6,171.6v-8.1h2.8
						c1.8-2.5,4.4-4.8,7.9-6.8c14.2-8.2,37.2-8.2,51.4,0c3.5,2,6.1,4.3,7.9,6.8h2.8v8.1l0,0c0,5.4-3.5,10.7-10.6,14.8
						c-14.2,8.2-37.2,8.2-51.4,0C387.2,182.3,383.6,177,383.6,171.6z"/>
					<ellipse class="st26" cx="419.9" cy="163.5" rx="36.3" ry="21"/>
				</g>
				<g>
					<path class="st8" d="M386.4,162.8v-11h2.6c1.6-2.3,4-4.4,7.3-6.3c13.1-7.6,34.3-7.6,47.4,0c3.2,1.8,5.6,4,7.3,6.3h2.6v11l0,0
						c0,5-3.3,9.9-9.8,13.7c-13.1,7.6-34.3,7.6-47.4,0C389.7,172.7,386.4,167.8,386.4,162.8z"/>
					<g class="st27">
						<path class="st28" d="M386.4,159.7v-11h2.6c1.6-2.3,4-4.4,7.3-6.3c13.1-7.6,34.3-7.6,47.4,0c3.2,1.8,5.6,4,7.3,6.3h2.6v11l0,0
							c0,5-3.3,9.9-9.8,13.7c-13.1,7.6-34.3,7.6-47.4,0C389.7,169.7,386.4,164.7,386.4,159.7z"/>
					</g>
					<ellipse class="st26" cx="419.9" cy="151.8" rx="33.5" ry="19.4"/>
				</g>
				<g>
					
						<linearGradient id="SVGID_00000080889038472079102240000009920009308399920280_" gradientUnits="userSpaceOnUse" x1="-140.945" y1="151.6454" x2="-68.319" y2="151.6454" gradientTransform="matrix(-1 0 0 1 315.2906 0)">
						<stop  offset="0" style="stop-color:#5761D7"/>
						<stop  offset="0.1779" style="stop-color:#5C66D9"/>
						<stop  offset="0.3876" style="stop-color:#6A73DF"/>
						<stop  offset="0.6134" style="stop-color:#8289E8"/>
						<stop  offset="0.849" style="stop-color:#A3A7F5"/>
						<stop  offset="1" style="stop-color:#BCBEFF"/>
					</linearGradient>
					<path style="fill:url(#SVGID_00000080889038472079102240000009920009308399920280_);" d="M383.6,151.6v-8.1h2.8
						c1.8-2.5,4.4-4.8,7.9-6.8c14.2-8.2,37.2-8.2,51.4,0c3.5,2,6.1,4.3,7.9,6.8h2.8v8.1l0,0c0,5.4-3.5,10.7-10.6,14.8
						c-14.2,8.2-37.2,8.2-51.4,0C387.2,162.4,383.6,157,383.6,151.6z"/>
					<ellipse class="st26" cx="419.9" cy="143.6" rx="36.3" ry="21"/>
					<ellipse class="st26" cx="419.9" cy="143.6" rx="36.3" ry="21"/>
				</g>
				<g>
					<g class="st27">
						<path class="st29" d="M396.8,164c7.9,10,19.2,13.7,26.2,15c-9.6,0.5-19.5-1.3-26.8-5.6c-6.5-3.8-9.8-8.7-9.8-13.7v-4.9
							C389.8,156.7,393.4,159.6,396.8,164z"/>
					</g>
					
						<linearGradient id="SVGID_00000067235075591409036690000006384165523646455174_" gradientUnits="userSpaceOnUse" x1="-140.945" y1="151.6454" x2="-68.319" y2="151.6454" gradientTransform="matrix(-1 0 0 1 315.2906 0)">
						<stop  offset="0" style="stop-color:#5761D7"/>
						<stop  offset="0.1779" style="stop-color:#5C66D9"/>
						<stop  offset="0.3876" style="stop-color:#6A73DF"/>
						<stop  offset="0.6134" style="stop-color:#8289E8"/>
						<stop  offset="0.849" style="stop-color:#A3A7F5"/>
						<stop  offset="1" style="stop-color:#BCBEFF"/>
					</linearGradient>
					<path style="fill:url(#SVGID_00000067235075591409036690000006384165523646455174_);" d="M383.6,151.6v-8.1h2.8
						c1.8-2.5,4.4-4.8,7.9-6.8c14.2-8.2,37.2-8.2,51.4,0c3.5,2,6.1,4.3,7.9,6.8h2.8v8.1l0,0c0,5.4-3.5,10.7-10.6,14.8
						c-14.2,8.2-37.2,8.2-51.4,0C387.2,162.4,383.6,157,383.6,151.6z"/>
					<ellipse class="st26" cx="419.9" cy="143.6" rx="36.3" ry="21"/>
					<ellipse class="st26" cx="419.9" cy="143.6" rx="36.3" ry="21"/>
					<path class="st17" d="M394,157.8c14.2,8.2,37.2,8.2,51.4,0c8.7-5,12-11.9,10.1-18.4c2.4,6.7-0.9,13.9-9.9,19.1
						c-14.2,8.2-37.2,8.2-51.4,0c-5.5-3.2-8.9-7.1-10.1-11.2C385.5,151.1,388.8,154.8,394,157.8z"/>
					<path class="st17" d="M394,177.7c14.2,8.2,37.2,8.2,51.4,0c8.7-5,12-11.9,10.1-18.4c2.4,6.7-0.9,13.9-9.9,19.1
						c-14.2,8.2-37.2,8.2-51.4,0c-5.5-3.2-8.9-7.1-10.1-11.2C385.5,171,388.8,174.7,394,177.7z"/>
					<path class="st17" d="M394,197.7c14.2,8.2,37.2,8.2,51.4,0c8.7-5,12-11.9,10.1-18.4c2.4,6.7-0.9,13.9-9.9,19.1
						c-14.2,8.2-37.2,8.2-51.4,0c-5.5-3.2-8.9-7.1-10.1-11.2C385.5,191,388.8,194.7,394,197.7z"/>
					<path class="st17" d="M394,217.6c14.2,8.2,37.2,8.2,51.4,0c8.7-5,12-11.9,10.1-18.4c2.4,6.7-0.9,13.9-9.9,19.1
						c-14.2,8.2-37.2,8.2-51.4,0c-5.5-3.2-8.9-7.1-10.1-11.2C385.5,210.9,388.8,214.6,394,217.6z"/>
				</g>
				<defs>
					
						<filter id="Adobe_OpacityMaskFilter_00000054958549455099214080000013415172476590098610_" filterUnits="userSpaceOnUse" x="419.9" y="132.9" width="36.3" height="19.4">
						<feFlood  style="flood-color:white;flood-opacity:1" result="back"/>
						<feBlend  in="SourceGraphic" in2="back" mode="normal"/>
					</filter>
				</defs>
				
					<mask maskUnits="userSpaceOnUse" x="419.9" y="132.9" width="36.3" height="19.4" id="SVGID_00000068674322866809184130000014827863095209194924_">
					<g style="filter:url(#Adobe_OpacityMaskFilter_00000054958549455099214080000013415172476590098610_);">
						<defs>
							
								<filter id="Adobe_OpacityMaskFilter_00000062189541713137403010000006141656365249600140_" filterUnits="userSpaceOnUse" x="419.9" y="132.9" width="36.3" height="19.4">
								<feFlood  style="flood-color:white;flood-opacity:1" result="back"/>
								<feBlend  in="SourceGraphic" in2="back" mode="normal"/>
							</filter>
						</defs>
						
							<mask maskUnits="userSpaceOnUse" x="419.9" y="132.9" width="36.3" height="19.4" id="SVGID_00000068674322866809184130000014827863095209194924_">
							<g style="filter:url(#Adobe_OpacityMaskFilter_00000062189541713137403010000006141656365249600140_);">
							</g>
						</mask>
						
							<linearGradient id="SVGID_00000037688164555355760560000016841090454546207640_" gradientUnits="userSpaceOnUse" x1="-140.9441" y1="142.6704" x2="-104.6319" y2="142.6704" gradientTransform="matrix(-1 0 0 1 315.2906 0)">
							<stop  offset="0" style="stop-color:#000000"/>
							<stop  offset="4.693538e-02" style="stop-color:#2F2F2F"/>
							<stop  offset="9.814870e-02" style="stop-color:#5A5A5A"/>
							<stop  offset="0.155" style="stop-color:#828282"/>
							<stop  offset="0.2161" style="stop-color:#A4A4A4"/>
							<stop  offset="0.2828" style="stop-color:#C0C0C0"/>
							<stop  offset="0.3571" style="stop-color:#D7D7D7"/>
							<stop  offset="0.442" style="stop-color:#E9E9E9"/>
							<stop  offset="0.5443" style="stop-color:#F6F6F6"/>
							<stop  offset="0.6813" style="stop-color:#FDFDFD"/>
							<stop  offset="1" style="stop-color:#FFFFFF"/>
						</linearGradient>
						
							<path style="mask:url(#SVGID_00000068674322866809184130000014827863095209194924_);fill:url(#SVGID_00000037688164555355760560000016841090454546207640_);" d="
							M452.9,152.4h-33v-19.4h31.3C457.3,138.9,457.8,146.2,452.9,152.4z"/>
					</g>
				</mask>
				
					<linearGradient id="SVGID_00000052808291290559690040000009976660463603293590_" gradientUnits="userSpaceOnUse" x1="-140.9441" y1="142.6704" x2="-104.6319" y2="142.6704" gradientTransform="matrix(-1 0 0 1 315.2906 0)">
					<stop  offset="0" style="stop-color:#E9E9FD"/>
					<stop  offset="3.739363e-02" style="stop-color:#D3D5F7"/>
					<stop  offset="0.1056" style="stop-color:#B2B6EF"/>
					<stop  offset="0.1817" style="stop-color:#969BE7"/>
					<stop  offset="0.2663" style="stop-color:#7F86E1"/>
					<stop  offset="0.3632" style="stop-color:#6D75DD"/>
					<stop  offset="0.4798" style="stop-color:#606AD9"/>
					<stop  offset="0.6363" style="stop-color:#5963D8"/>
					<stop  offset="1" style="stop-color:#5761D7"/>
				</linearGradient>
				<path style="opacity:0.78;fill:url(#SVGID_00000052808291290559690040000009976660463603293590_);" d="M452.9,152.4h-33v-19.4
					h31.3C457.3,138.9,457.8,146.2,452.9,152.4z"/>
				<g>
					
						<linearGradient id="SVGID_00000121278317457967755640000017794007072051897506_" gradientUnits="userSpaceOnUse" x1="-123.276" y1="141.6286" x2="-85.9879" y2="141.6286" gradientTransform="matrix(-1 0 0 1 315.2906 0)">
						<stop  offset="0" style="stop-color:#5761D7"/>
						<stop  offset="0.1779" style="stop-color:#5C66D9"/>
						<stop  offset="0.3876" style="stop-color:#6A73DF"/>
						<stop  offset="0.6134" style="stop-color:#8289E8"/>
						<stop  offset="0.849" style="stop-color:#A3A7F5"/>
						<stop  offset="1" style="stop-color:#BCBEFF"/>
					</linearGradient>
					<path style="fill:url(#SVGID_00000121278317457967755640000017794007072051897506_);" d="M401.3,141.6v-4.1h1.4
						c0.9-1.3,2.3-2.4,4-3.5c7.3-4.2,19.1-4.2,26.4,0c1.8,1,3.1,2.2,4,3.5h1.4v4.1l0,0c0,2.8-1.8,5.5-5.5,7.6
						c-7.3,4.2-19.1,4.2-26.4,0C403.1,147.1,401.3,144.4,401.3,141.6z"/>
					<ellipse class="st26" cx="419.9" cy="137.5" rx="18.6" ry="10.8"/>
					
						<linearGradient id="SVGID_00000106121204464929965130000012438948055259291051_" gradientUnits="userSpaceOnUse" x1="-123.276" y1="137.4921" x2="-85.9879" y2="137.4921" gradientTransform="matrix(-1 0 0 1 315.2906 0)">
						<stop  offset="0" style="stop-color:#C0BFF6"/>
						<stop  offset="0.2938" style="stop-color:#C5C4F7"/>
						<stop  offset="0.6399" style="stop-color:#D3D2F9"/>
						<stop  offset="1" style="stop-color:#E9E9FD"/>
					</linearGradient>
					
						<ellipse style="fill:url(#SVGID_00000106121204464929965130000012438948055259291051_);" cx="419.9" cy="137.5" rx="18.6" ry="10.8"/>
					<path class="st8" d="M411,142.6c4.9,2.8,12.9,2.8,17.8,0c1.5-0.9,2.6-1.9,3.2-3.1c1.3-2.5-1.9-4.3-5.3-6.2
						c-4.9-2.8-8.4-3.5-13.3-0.7c-3.4,1.9-6.8,4.4-5.5,6.9C408.5,140.7,409.5,141.7,411,142.6z"/>
					
						<linearGradient id="SVGID_00000000931605103237613220000008894272880291450300_" gradientUnits="userSpaceOnUse" x1="-117.185" y1="134.9024" x2="-92.0789" y2="134.9024" gradientTransform="matrix(-1 0 0 1 315.2906 0)">
						<stop  offset="0" style="stop-color:#BCBEFF"/>
						<stop  offset="0.151" style="stop-color:#A3A7F5"/>
						<stop  offset="0.3866" style="stop-color:#8289E8"/>
						<stop  offset="0.6124" style="stop-color:#6A73DF"/>
						<stop  offset="0.8221" style="stop-color:#5C66D9"/>
						<stop  offset="1" style="stop-color:#5761D7"/>
					</linearGradient>
					<path style="fill:url(#SVGID_00000000931605103237613220000008894272880291450300_);" d="M428.8,136.5
						c-4.9-2.8-12.9-2.8-17.8,0c-1.5,0.9-2.6,1.9-3.2,3.1c-1.3-2.5-0.2-5.2,3.2-7.2c4.9-2.8,12.9-2.8,17.8,0
						c3.4,1.9,4.4,4.7,3.2,7.2C431.4,138.4,430.3,137.4,428.8,136.5z"/>
				</g>
			</g>
			<g>
				<g class="st27">
					<path class="st41" d="M399.5,174.2c2.4,1,4.3,0.7,4.1-0.6c-0.2-1.3-2.3-3.1-4.8-4.1c-2.4-1-4.3-0.7-4.1,0.6
						C394.9,171.4,397,173.2,399.5,174.2z"/>
				</g>
				<g class="st27">
					<path class="st41" d="M399.5,194.4c2.4,1,4.3,0.7,4.1-0.6c-0.2-1.3-2.3-3.1-4.8-4.1c-2.4-1-4.3-0.7-4.1,0.6
						C394.9,191.6,397,193.4,399.5,194.4z"/>
				</g>
				<g class="st27">
					<path class="st41" d="M399.3,214.8c2.4,1,4.3,0.7,4.1-0.6c-0.2-1.3-2.3-3.1-4.8-4.1c-2.4-1-4.3-0.7-4.1,0.6
						C394.8,212,396.9,213.8,399.3,214.8z"/>
				</g>
				<g class="st27">
					<path class="st41" d="M392.5,169.1c0.6,0.4,1.3,0.4,1.6,0c0.3-0.4,0.1-1.1-0.5-1.5c-0.6-0.4-1.3-0.4-1.6,0
						C391.7,168,391.9,168.7,392.5,169.1z"/>
				</g>
				<g class="st27">
					<path class="st41" d="M392.5,189.4c0.6,0.4,1.3,0.4,1.6,0c0.3-0.4,0.1-1.1-0.5-1.5c-0.6-0.4-1.3-0.4-1.6,0
						C391.7,188.3,391.9,189,392.5,189.4z"/>
				</g>
				<g class="st27">
					<path class="st41" d="M392.5,209.7c0.6,0.4,1.3,0.4,1.6,0c0.3-0.4,0.1-1.1-0.5-1.5c-0.6-0.4-1.3-0.4-1.6,0
						C391.7,208.6,391.9,209.3,392.5,209.7z"/>
				</g>
			</g>
		</g>
		<g>
			<path class="st24" d="M397.9,267.1c-0.6,0-1.2-0.1-1.6-0.4l0,0l-79.4-45.9c-0.5-0.3-0.7-0.6-0.7-1.1c0-0.5,0.4-1,1-1.3l16.5-9.5
				c1.1-0.6,2.7-0.7,3.7-0.1l79.4,45.9c0.5,0.3,0.7,0.6,0.7,1.1c0,0.5-0.4,1-1,1.3l-16.5,9.5C399.3,266.9,398.6,267.1,397.9,267.1z
				 M396.5,266.3c0.8,0.5,2.3,0.4,3.2-0.1l16.5-9.5c0.5-0.3,0.7-0.6,0.7-0.9c0-0.3-0.3-0.5-0.5-0.7L337,209.2
				c-0.8-0.5-2.3-0.4-3.2,0.1l-16.5,9.5c-0.5,0.3-0.7,0.6-0.7,0.9c0,0.3,0.3,0.5,0.5,0.7L396.5,266.3z"/>
			<g>
				
					<linearGradient id="SVGID_00000126313035930043354200000006783656716567411344_" gradientUnits="userSpaceOnUse" x1="-280.0621" y1="-272.8907" x2="-184.8053" y2="-272.8907" gradientTransform="matrix(-0.866 -0.5 0 1.1547 175.5006 405.1006)">
					<stop  offset="0" style="stop-color:#5761D7"/>
					<stop  offset="0.1779" style="stop-color:#5C66D9"/>
					<stop  offset="0.3876" style="stop-color:#6A73DF"/>
					<stop  offset="0.6134" style="stop-color:#8289E8"/>
					<stop  offset="0.849" style="stop-color:#A3A7F5"/>
					<stop  offset="1" style="stop-color:#BCBEFF"/>
				</linearGradient>
				<path style="fill:url(#SVGID_00000126313035930043354200000006783656716567411344_);" d="M348.8,181.9c2.1,1.2,4.1,2.9,5.8,4.9
					c2.4-7.8,9.9-10.3,18.7-5.2c7.3,4.2,13.6,12.5,17,21.2c1.1,0,2.4,0.4,3.7,1.2c4.8,2.7,8.6,9.4,8.6,14.9c0,0.1,0,0.2,0,0.3
					c1.4,0.1,2.9,0.6,4.4,1.5c6.1,3.5,11,12,11,19.1c0,7-4.9,9.9-11,6.4l-58.2-33.6c-7.3-4.2-13.3-14.5-13.3-23
					S341.5,177.7,348.8,181.9z"/>
				
					<radialGradient id="SVGID_00000062874097846408209540000016870567745586354331_" cx="-83.357" cy="205.2633" r="39.3504" fx="-120.4661" fy="192.1724" gradientTransform="matrix(-1 0 0 1 315.2906 0)" gradientUnits="userSpaceOnUse">
					<stop  offset="0" style="stop-color:#2B237C"/>
					<stop  offset="1" style="stop-color:#180D5B"/>
				</radialGradient>
				<path style="fill:url(#SVGID_00000062874097846408209540000016870567745586354331_);" d="M348.8,181.9c1.2,0.7,2.4,1.6,3.5,2.6
					l6.5-3.8l0,0c3.6-2.5,8.7-2.4,14.5,0.9c7.3,4.2,13.6,12.5,17,21.2c1.1,0,2.4,0.4,3.7,1.2c4.8,2.7,8.6,9.4,8.6,14.9
					c0,0.1,0,0.2,0,0.3c1.4,0.1,2.9,0.6,4.4,1.5c6.1,3.5,11,12,11,19.1c0,3.5-1.2,5.9-3.2,7.1l0,0l-0.1,0c0,0,0,0,0,0l-15.9,9.3
					l-3.5-16.7l-46.6-26.9c-7.3-4.2-13.3-14.5-13.3-23S341.5,177.7,348.8,181.9z"/>
				
					<linearGradient id="SVGID_00000159444754080669305770000017920441540139894923_" gradientUnits="userSpaceOnUse" x1="-102.7438" y1="217.6235" x2="-7.9229" y2="217.6235" gradientTransform="matrix(-1 0 0 1 315.2906 0)">
					<stop  offset="0" style="stop-color:#5761D7"/>
					<stop  offset="0.1779" style="stop-color:#5C66D9"/>
					<stop  offset="0.3876" style="stop-color:#6A73DF"/>
					<stop  offset="0.6134" style="stop-color:#8289E8"/>
					<stop  offset="0.849" style="stop-color:#A3A7F5"/>
					<stop  offset="1" style="stop-color:#BCBEFF"/>
				</linearGradient>
				<path style="fill:url(#SVGID_00000159444754080669305770000017920441540139894923_);" d="M323.2,190.4l16.1-9.4l0,0
					c2.4-1.4,5.8-1.3,9.5,0.9c1.2,0.7,2.4,1.6,3.5,2.6l6.5-3.8l0,0c3.6-2.5,8.7-2.4,14.5,0.9c7.3,4.2,13.6,12.5,17,21.2
					c1.1,0,2.4,0.4,3.7,1.2c4.8,2.7,8.6,9.4,8.6,14.9c0,0.1,0,0.2,0,0.3c1.4,0.1,2.9,0.6,4.4,1.5c6.1,3.5,11,12,11,19.1
					c0,3.5-1.2,5.9-3.2,7.1l0,0l-0.1,0c0,0,0,0,0,0l-15.9,9.3l-3.5-16.7l-46.6-26.9c-5.9-3.4-11-10.9-12.7-18.1L323.2,190.4z"/>
				
					<linearGradient id="SVGID_00000084498788775316086640000008826896360824434103_" gradientUnits="userSpaceOnUse" x1="-261.5975" y1="-256.8573" x2="-166.3407" y2="-256.8573" gradientTransform="matrix(-0.866 -0.5 0 1.1547 175.5006 405.1006)">
					<stop  offset="0" style="stop-color:#C0BFF6"/>
					<stop  offset="0.2938" style="stop-color:#C5C4F7"/>
					<stop  offset="0.6399" style="stop-color:#D3D2F9"/>
					<stop  offset="1" style="stop-color:#E9E9FD"/>
				</linearGradient>
				<path style="fill:url(#SVGID_00000084498788775316086640000008826896360824434103_);" d="M332.8,191.2c2.1,1.2,4.1,2.9,5.8,4.9
					c2.4-7.8,9.9-10.3,18.7-5.2c7.3,4.2,13.6,12.5,17,21.2c1.1,0,2.4,0.4,3.7,1.2c4.8,2.7,8.6,9.4,8.6,14.9c0,0.1,0,0.2,0,0.3
					c1.4,0.1,2.9,0.6,4.4,1.5c6.1,3.5,11,12,11,19.1c0,7-4.9,9.9-11,6.4l-58.2-33.6c-7.3-4.2-13.3-14.5-13.3-23
					C319.6,190.4,325.5,187,332.8,191.2z"/>
				<g>
					<path class="st17" d="M338.7,196.1c-1.8-2-3.7-3.7-5.8-4.9c-4.5-2.6-8.5-2.3-10.9,0.2c2.4-3,6.5-3.4,11.2-0.7
						c2,1.2,3.9,2.8,5.7,4.7C338.8,195.7,338.7,195.9,338.7,196.1z"/>
					<path class="st17" d="M402,249.2c0-7-4.9-15.6-11-19.1c-1.6-0.9-3.1-1.4-4.4-1.5c0-0.1,0-0.2,0-0.3c0-5.5-3.9-12.2-8.6-14.9
						c-1.3-0.8-2.6-1.1-3.7-1.2c-3.4-8.8-9.7-17-17-21.2c-6.7-3.9-12.6-3.4-16.1,0.5c3.5-4.3,9.5-4.9,16.5-0.9
						c7.3,4.2,13.6,12.5,17,21.2c1.1,0,2.4,0.4,3.7,1.2c4.8,2.7,8.6,9.4,8.6,14.9c0,0.1,0,0.2,0,0.3c1.4,0.1,2.9,0.6,4.4,1.5
						c6.1,3.5,11,12,11,19.1c0,2.8-0.8,4.9-2.1,6.2C401.4,253.6,402,251.6,402,249.2z"/>
				</g>
			</g>
		</g>
	</g>
</g>
</svg>
